<mxfile host="65bd71144e">
    <diagram id="7oehhZMjAtcPz-KCo3S0" name="Page-1">
        <mxGraphModel dx="1473" dy="798" grid="1" gridSize="10" guides="1" tooltips="1" connect="1" arrows="1" fold="1" page="1" pageScale="1" pageWidth="850" pageHeight="1100" math="0" shadow="0">
            <root>
                <mxCell id="0"/>
                <mxCell id="1" parent="0"/>
                <mxCell id="wx6XdmQpY_lOMMu2Ngc3-1" value="UTILISATEUR&lt;br&gt;(UserName)" style="ellipse;whiteSpace=wrap;html=1;" parent="1" vertex="1">
                    <mxGeometry x="840" y="540" width="205" height="120" as="geometry"/>
                </mxCell>
                <mxCell id="wx6XdmQpY_lOMMu2Ngc3-5" value="" style="endArrow=none;html=1;rounded=0;entryX=0;entryY=0.5;entryDx=0;entryDy=0;" parent="1" target="wx6XdmQpY_lOMMu2Ngc3-11" edge="1">
                    <mxGeometry width="50" height="50" relative="1" as="geometry">
                        <mxPoint x="1045" y="598.41" as="sourcePoint"/>
                        <mxPoint x="1106" y="598.41" as="targetPoint"/>
                    </mxGeometry>
                </mxCell>
                <mxCell id="wx6XdmQpY_lOMMu2Ngc3-10" value="" style="group" parent="1" vertex="1" connectable="0">
                    <mxGeometry x="1122" y="579" width="80" height="40" as="geometry"/>
                </mxCell>
                <mxCell id="wx6XdmQpY_lOMMu2Ngc3-11" value="" style="rounded=0;whiteSpace=wrap;html=1;" parent="wx6XdmQpY_lOMMu2Ngc3-10" vertex="1">
                    <mxGeometry width="40" height="40" as="geometry"/>
                </mxCell>
                <mxCell id="wx6XdmQpY_lOMMu2Ngc3-12" value="" style="rounded=0;whiteSpace=wrap;html=1;" parent="wx6XdmQpY_lOMMu2Ngc3-10" vertex="1">
                    <mxGeometry x="40" width="40" height="40" as="geometry"/>
                </mxCell>
                <mxCell id="wx6XdmQpY_lOMMu2Ngc3-14" value="Mot_de_passe" style="ellipse;whiteSpace=wrap;html=1;dashed=1;" parent="1" vertex="1">
                    <mxGeometry x="1282" y="559" width="120" height="80" as="geometry"/>
                </mxCell>
                <mxCell id="wx6XdmQpY_lOMMu2Ngc3-16" value="" style="endArrow=none;html=1;rounded=0;" parent="1" edge="1">
                    <mxGeometry width="50" height="50" relative="1" as="geometry">
                        <mxPoint x="1202" y="598.5799999999999" as="sourcePoint"/>
                        <mxPoint x="1282" y="599" as="targetPoint"/>
                    </mxGeometry>
                </mxCell>
                <mxCell id="wx6XdmQpY_lOMMu2Ngc3-17" value="" style="group;rotation=-90;" parent="1" vertex="1" connectable="0">
                    <mxGeometry x="1020" y="400" width="80" height="40" as="geometry"/>
                </mxCell>
                <mxCell id="wx6XdmQpY_lOMMu2Ngc3-18" value="" style="rounded=0;whiteSpace=wrap;html=1;rotation=-90;" parent="wx6XdmQpY_lOMMu2Ngc3-17" vertex="1">
                    <mxGeometry x="20" y="20" width="40" height="40" as="geometry"/>
                </mxCell>
                <mxCell id="wx6XdmQpY_lOMMu2Ngc3-19" value="" style="rounded=0;whiteSpace=wrap;html=1;rotation=-90;" parent="wx6XdmQpY_lOMMu2Ngc3-17" vertex="1">
                    <mxGeometry x="20" y="-20" width="40" height="40" as="geometry"/>
                </mxCell>
                <mxCell id="wx6XdmQpY_lOMMu2Ngc3-20" value="" style="group;rotation=90;" parent="1" vertex="1" connectable="0">
                    <mxGeometry x="900" y="400" width="80" height="40" as="geometry"/>
                </mxCell>
                <mxCell id="wx6XdmQpY_lOMMu2Ngc3-21" value="" style="rounded=0;whiteSpace=wrap;html=1;rotation=90;" parent="wx6XdmQpY_lOMMu2Ngc3-20" vertex="1">
                    <mxGeometry x="20" y="-20" width="40" height="40" as="geometry"/>
                </mxCell>
                <mxCell id="wx6XdmQpY_lOMMu2Ngc3-22" value="" style="rounded=0;whiteSpace=wrap;html=1;rotation=90;" parent="wx6XdmQpY_lOMMu2Ngc3-20" vertex="1">
                    <mxGeometry x="20" y="20" width="40" height="40" as="geometry"/>
                </mxCell>
                <mxCell id="wx6XdmQpY_lOMMu2Ngc3-23" value="Nom" style="ellipse;whiteSpace=wrap;html=1;dashed=1;rotation=-90;" parent="1" vertex="1">
                    <mxGeometry x="881" y="200" width="120" height="80" as="geometry"/>
                </mxCell>
                <mxCell id="wx6XdmQpY_lOMMu2Ngc3-24" value="Email" style="ellipse;whiteSpace=wrap;html=1;dashed=1;rotation=-90;" parent="1" vertex="1">
                    <mxGeometry x="1000" y="200" width="120" height="80" as="geometry"/>
                </mxCell>
                <mxCell id="wx6XdmQpY_lOMMu2Ngc3-32" value="" style="endArrow=none;html=1;rounded=0;entryX=0;entryY=0.5;entryDx=0;entryDy=0;exitX=1;exitY=0.5;exitDx=0;exitDy=0;" parent="1" source="wx6XdmQpY_lOMMu2Ngc3-19" target="wx6XdmQpY_lOMMu2Ngc3-24" edge="1">
                    <mxGeometry width="50" height="50" relative="1" as="geometry">
                        <mxPoint x="1050" y="380" as="sourcePoint"/>
                        <mxPoint x="1100" y="330" as="targetPoint"/>
                    </mxGeometry>
                </mxCell>
                <mxCell id="wx6XdmQpY_lOMMu2Ngc3-33" value="" style="endArrow=none;html=1;rounded=0;entryX=0;entryY=0.5;entryDx=0;entryDy=0;exitX=1;exitY=0.5;exitDx=0;exitDy=0;" parent="1" edge="1">
                    <mxGeometry width="50" height="50" relative="1" as="geometry">
                        <mxPoint x="940.5799999999999" y="380" as="sourcePoint"/>
                        <mxPoint x="940.5799999999999" y="300" as="targetPoint"/>
                    </mxGeometry>
                </mxCell>
                <mxCell id="wx6XdmQpY_lOMMu2Ngc3-36" value="INCIDENT&lt;br&gt;(id)" style="ellipse;whiteSpace=wrap;html=1;" parent="1" vertex="1">
                    <mxGeometry x="354" y="540" width="205" height="120" as="geometry"/>
                </mxCell>
                <mxCell id="wx6XdmQpY_lOMMu2Ngc3-37" value="" style="endArrow=none;html=1;rounded=0;" parent="1" edge="1">
                    <mxGeometry width="50" height="50" relative="1" as="geometry">
                        <mxPoint x="360" y="720" as="sourcePoint"/>
                        <mxPoint x="280" y="719.66" as="targetPoint"/>
                    </mxGeometry>
                </mxCell>
                <mxCell id="wx6XdmQpY_lOMMu2Ngc3-39" value="" style="group" parent="1" vertex="1" connectable="0">
                    <mxGeometry x="200" y="700" width="80" height="40" as="geometry"/>
                </mxCell>
                <mxCell id="wx6XdmQpY_lOMMu2Ngc3-40" value="" style="rounded=0;whiteSpace=wrap;html=1;" parent="wx6XdmQpY_lOMMu2Ngc3-39" vertex="1">
                    <mxGeometry width="40" height="40" as="geometry"/>
                </mxCell>
                <mxCell id="wx6XdmQpY_lOMMu2Ngc3-41" value="" style="rounded=0;whiteSpace=wrap;html=1;" parent="wx6XdmQpY_lOMMu2Ngc3-39" vertex="1">
                    <mxGeometry x="40" width="40" height="40" as="geometry"/>
                </mxCell>
                <mxCell id="wx6XdmQpY_lOMMu2Ngc3-45" value="Date" style="ellipse;whiteSpace=wrap;html=1;dashed=1;" parent="1" vertex="1">
                    <mxGeometry y="680" width="120" height="80" as="geometry"/>
                </mxCell>
                <mxCell id="wx6XdmQpY_lOMMu2Ngc3-47" value="" style="endArrow=none;html=1;rounded=0;" parent="1" edge="1">
                    <mxGeometry width="50" height="50" relative="1" as="geometry">
                        <mxPoint x="200" y="719.5799999999997" as="sourcePoint"/>
                        <mxPoint x="120" y="720" as="targetPoint"/>
                    </mxGeometry>
                </mxCell>
                <mxCell id="wx6XdmQpY_lOMMu2Ngc3-62" value="" style="endArrow=none;html=1;rounded=0;" parent="1" edge="1">
                    <mxGeometry width="50" height="50" relative="1" as="geometry">
                        <mxPoint x="360" y="480" as="sourcePoint"/>
                        <mxPoint x="280" y="480" as="targetPoint"/>
                    </mxGeometry>
                </mxCell>
                <mxCell id="wx6XdmQpY_lOMMu2Ngc3-63" value="" style="group" parent="1" vertex="1" connectable="0">
                    <mxGeometry x="200" y="460" width="80" height="40" as="geometry"/>
                </mxCell>
                <mxCell id="wx6XdmQpY_lOMMu2Ngc3-64" value="" style="rounded=0;whiteSpace=wrap;html=1;" parent="wx6XdmQpY_lOMMu2Ngc3-63" vertex="1">
                    <mxGeometry width="40" height="40" as="geometry"/>
                </mxCell>
                <mxCell id="wx6XdmQpY_lOMMu2Ngc3-65" value="" style="rounded=0;whiteSpace=wrap;html=1;" parent="wx6XdmQpY_lOMMu2Ngc3-63" vertex="1">
                    <mxGeometry x="40" width="40" height="40" as="geometry"/>
                </mxCell>
                <mxCell id="wx6XdmQpY_lOMMu2Ngc3-66" value="Description" style="ellipse;whiteSpace=wrap;html=1;dashed=1;" parent="1" vertex="1">
                    <mxGeometry y="440" width="120" height="80" as="geometry"/>
                </mxCell>
                <mxCell id="wx6XdmQpY_lOMMu2Ngc3-67" value="" style="endArrow=none;html=1;rounded=0;" parent="1" edge="1">
                    <mxGeometry width="50" height="50" relative="1" as="geometry">
                        <mxPoint x="200" y="479.5799999999997" as="sourcePoint"/>
                        <mxPoint x="120" y="480" as="targetPoint"/>
                    </mxGeometry>
                </mxCell>
                <mxCell id="wx6XdmQpY_lOMMu2Ngc3-74" value="" style="endArrow=none;html=1;rounded=0;startArrow=none;exitX=0.34;exitY=0.028;exitDx=0;exitDy=0;exitPerimeter=0;" parent="1" source="wx6XdmQpY_lOMMu2Ngc3-36" edge="1">
                    <mxGeometry width="50" height="50" relative="1" as="geometry">
                        <mxPoint x="421.7253473079012" y="551.2215545860398" as="sourcePoint"/>
                        <mxPoint x="360" y="480" as="targetPoint"/>
                    </mxGeometry>
                </mxCell>
                <mxCell id="wx6XdmQpY_lOMMu2Ngc3-76" value="" style="group" parent="1" vertex="1" connectable="0">
                    <mxGeometry x="660" y="580" width="80" height="40" as="geometry"/>
                </mxCell>
                <mxCell id="wx6XdmQpY_lOMMu2Ngc3-77" value="" style="rounded=0;whiteSpace=wrap;html=1;" parent="wx6XdmQpY_lOMMu2Ngc3-76" vertex="1">
                    <mxGeometry width="40" height="40" as="geometry"/>
                </mxCell>
                <mxCell id="wx6XdmQpY_lOMMu2Ngc3-78" value="" style="rounded=0;whiteSpace=wrap;html=1;" parent="wx6XdmQpY_lOMMu2Ngc3-76" vertex="1">
                    <mxGeometry x="40" width="40" height="40" as="geometry"/>
                </mxCell>
                <mxCell id="wx6XdmQpY_lOMMu2Ngc3-79" value="" style="endArrow=none;html=1;rounded=0;exitX=0;exitY=0.5;exitDx=0;exitDy=0;" parent="1" source="wx6XdmQpY_lOMMu2Ngc3-77" edge="1">
                    <mxGeometry width="50" height="50" relative="1" as="geometry">
                        <mxPoint x="639" y="600" as="sourcePoint"/>
                        <mxPoint x="559" y="600" as="targetPoint"/>
                    </mxGeometry>
                </mxCell>
                <mxCell id="wx6XdmQpY_lOMMu2Ngc3-80" value="" style="endArrow=none;html=1;rounded=0;entryX=1;entryY=0.5;entryDx=0;entryDy=0;exitX=0;exitY=0.5;exitDx=0;exitDy=0;" parent="1" source="wx6XdmQpY_lOMMu2Ngc3-1" target="wx6XdmQpY_lOMMu2Ngc3-78" edge="1">
                    <mxGeometry width="50" height="50" relative="1" as="geometry">
                        <mxPoint x="830" y="600" as="sourcePoint"/>
                        <mxPoint x="750" y="600" as="targetPoint"/>
                    </mxGeometry>
                </mxCell>
                <mxCell id="wx6XdmQpY_lOMMu2Ngc3-94" value="" style="endArrow=classic;startArrow=classic;html=1;rounded=0;" parent="1" edge="1">
                    <mxGeometry width="50" height="50" relative="1" as="geometry">
                        <mxPoint x="1123" y="569" as="sourcePoint"/>
                        <mxPoint x="1164" y="569" as="targetPoint"/>
                    </mxGeometry>
                </mxCell>
                <mxCell id="wx6XdmQpY_lOMMu2Ngc3-98" value="" style="group;rotation=-90;" parent="1" vertex="1" connectable="0">
                    <mxGeometry x="984" y="420" width="80" as="geometry"/>
                </mxCell>
                <mxCell id="wx6XdmQpY_lOMMu2Ngc3-96" value="" style="endArrow=classic;startArrow=classic;html=1;rounded=0;" parent="wx6XdmQpY_lOMMu2Ngc3-98" edge="1">
                    <mxGeometry width="50" height="50" relative="1" as="geometry">
                        <mxPoint x="40" y="40" as="sourcePoint"/>
                        <mxPoint x="40" y="-1" as="targetPoint"/>
                    </mxGeometry>
                </mxCell>
                <mxCell id="wx6XdmQpY_lOMMu2Ngc3-97" value="" style="endArrow=classic;startArrow=classic;html=1;rounded=0;" parent="wx6XdmQpY_lOMMu2Ngc3-98" edge="1">
                    <mxGeometry width="50" height="50" relative="1" as="geometry">
                        <mxPoint x="40" y="1" as="sourcePoint"/>
                        <mxPoint x="40" y="-40" as="targetPoint"/>
                    </mxGeometry>
                </mxCell>
                <mxCell id="wx6XdmQpY_lOMMu2Ngc3-99" value="" style="endArrow=classic;startArrow=classic;html=1;rounded=0;" parent="1" edge="1">
                    <mxGeometry width="50" height="50" relative="1" as="geometry">
                        <mxPoint x="660" y="570" as="sourcePoint"/>
                        <mxPoint x="701" y="570" as="targetPoint"/>
                    </mxGeometry>
                </mxCell>
                <mxCell id="wx6XdmQpY_lOMMu2Ngc3-100" value="" style="endArrow=classic;startArrow=classic;html=1;rounded=0;" parent="1" edge="1">
                    <mxGeometry width="50" height="50" relative="1" as="geometry">
                        <mxPoint x="910" y="460" as="sourcePoint"/>
                        <mxPoint x="910" y="420" as="targetPoint"/>
                    </mxGeometry>
                </mxCell>
                <mxCell id="wx6XdmQpY_lOMMu2Ngc3-105" value="" style="endArrow=classic;startArrow=classic;html=1;rounded=0;" parent="1" edge="1">
                    <mxGeometry width="50" height="50" relative="1" as="geometry">
                        <mxPoint x="239" y="450" as="sourcePoint"/>
                        <mxPoint x="280" y="450" as="targetPoint"/>
                    </mxGeometry>
                </mxCell>
                <mxCell id="wx6XdmQpY_lOMMu2Ngc3-106" value="" style="endArrow=classic;startArrow=classic;html=1;rounded=0;" parent="1" edge="1">
                    <mxGeometry width="50" height="50" relative="1" as="geometry">
                        <mxPoint x="239" y="690" as="sourcePoint"/>
                        <mxPoint x="280" y="690" as="targetPoint"/>
                    </mxGeometry>
                </mxCell>
                <mxCell id="wx6XdmQpY_lOMMu2Ngc3-117" value="" style="ellipse;whiteSpace=wrap;html=1;fillColor=#1900FF;strokeColor=#1900FF;" parent="1" vertex="1">
                    <mxGeometry x="1040" y="594" width="10" height="10" as="geometry"/>
                </mxCell>
                <mxCell id="wx6XdmQpY_lOMMu2Ngc3-81" value="" style="group;rotation=-270;" parent="1" vertex="1" connectable="0">
                    <mxGeometry x="900" y="740" width="80" height="40" as="geometry"/>
                </mxCell>
                <mxCell id="wx6XdmQpY_lOMMu2Ngc3-82" value="" style="rounded=0;whiteSpace=wrap;html=1;rotation=-270;" parent="wx6XdmQpY_lOMMu2Ngc3-81" vertex="1">
                    <mxGeometry x="20" y="-20" width="40" height="40" as="geometry"/>
                </mxCell>
                <mxCell id="wx6XdmQpY_lOMMu2Ngc3-83" value="" style="rounded=0;whiteSpace=wrap;html=1;rotation=-270;" parent="wx6XdmQpY_lOMMu2Ngc3-81" vertex="1">
                    <mxGeometry x="20" y="20" width="40" height="40" as="geometry"/>
                </mxCell>
                <mxCell id="wx6XdmQpY_lOMMu2Ngc3-91" value="" style="endArrow=none;html=1;rounded=0;entryX=1;entryY=0.5;entryDx=0;entryDy=0;" parent="1" target="wx6XdmQpY_lOMMu2Ngc3-83" edge="1">
                    <mxGeometry width="50" height="50" relative="1" as="geometry">
                        <mxPoint x="940" y="860" as="sourcePoint"/>
                        <mxPoint x="939.67" y="831" as="targetPoint"/>
                    </mxGeometry>
                </mxCell>
                <mxCell id="wx6XdmQpY_lOMMu2Ngc3-119" value="" style="endArrow=none;html=1;rounded=0;" parent="1" edge="1">
                    <mxGeometry width="50" height="50" relative="1" as="geometry">
                        <mxPoint x="940" y="720" as="sourcePoint"/>
                        <mxPoint x="940" y="661" as="targetPoint"/>
                    </mxGeometry>
                </mxCell>
                <mxCell id="wx6XdmQpY_lOMMu2Ngc3-121" value="RÔLE" style="ellipse;whiteSpace=wrap;html=1;" parent="1" vertex="1">
                    <mxGeometry x="880" y="860" width="120" height="80" as="geometry"/>
                </mxCell>
                <mxCell id="wx6XdmQpY_lOMMu2Ngc3-122" value="" style="group;rotation=-270;" parent="1" vertex="1" connectable="0">
                    <mxGeometry x="860" y="1020" width="80" height="40" as="geometry"/>
                </mxCell>
                <mxCell id="wx6XdmQpY_lOMMu2Ngc3-123" value="" style="rounded=0;whiteSpace=wrap;html=1;rotation=-270;" parent="wx6XdmQpY_lOMMu2Ngc3-122" vertex="1">
                    <mxGeometry x="20" y="-20" width="40" height="40" as="geometry"/>
                </mxCell>
                <mxCell id="wx6XdmQpY_lOMMu2Ngc3-124" value="" style="rounded=0;whiteSpace=wrap;html=1;rotation=-270;" parent="wx6XdmQpY_lOMMu2Ngc3-122" vertex="1">
                    <mxGeometry x="20" y="20" width="40" height="40" as="geometry"/>
                </mxCell>
                <mxCell id="wx6XdmQpY_lOMMu2Ngc3-125" value="" style="group;rotation=-90;" parent="1" vertex="1" connectable="0">
                    <mxGeometry x="940" y="1020" width="80" height="40" as="geometry"/>
                </mxCell>
                <mxCell id="wx6XdmQpY_lOMMu2Ngc3-126" value="" style="rounded=0;whiteSpace=wrap;html=1;rotation=-90;" parent="wx6XdmQpY_lOMMu2Ngc3-125" vertex="1">
                    <mxGeometry x="20" y="20" width="40" height="40" as="geometry"/>
                </mxCell>
                <mxCell id="wx6XdmQpY_lOMMu2Ngc3-127" value="" style="rounded=0;whiteSpace=wrap;html=1;rotation=-90;" parent="wx6XdmQpY_lOMMu2Ngc3-125" vertex="1">
                    <mxGeometry x="20" y="-20" width="40" height="40" as="geometry"/>
                </mxCell>
                <mxCell id="wx6XdmQpY_lOMMu2Ngc3-147" value="" style="endArrow=classic;html=1;rounded=0;dashed=1;" parent="wx6XdmQpY_lOMMu2Ngc3-125" edge="1">
                    <mxGeometry width="50" height="50" relative="1" as="geometry">
                        <mxPoint x="-20" as="sourcePoint"/>
                        <mxPoint x="20" as="targetPoint"/>
                    </mxGeometry>
                </mxCell>
                <mxCell id="wx6XdmQpY_lOMMu2Ngc3-128" value="Moderateur&lt;br&gt;Code;{oui,non}" style="ellipse;whiteSpace=wrap;html=1;dashed=1;rotation=-90;" parent="1" vertex="1">
                    <mxGeometry x="919" y="1140" width="120" height="80" as="geometry"/>
                </mxCell>
                <mxCell id="wx6XdmQpY_lOMMu2Ngc3-130" value="" style="endArrow=none;html=1;rounded=0;entryX=0.335;entryY=0.971;entryDx=0;entryDy=0;entryPerimeter=0;exitX=0;exitY=0.5;exitDx=0;exitDy=0;" parent="1" source="wx6XdmQpY_lOMMu2Ngc3-123" target="wx6XdmQpY_lOMMu2Ngc3-121" edge="1">
                    <mxGeometry width="50" height="50" relative="1" as="geometry">
                        <mxPoint x="900" y="1040" as="sourcePoint"/>
                        <mxPoint x="920" y="956" as="targetPoint"/>
                    </mxGeometry>
                </mxCell>
                <mxCell id="wx6XdmQpY_lOMMu2Ngc3-131" value="" style="endArrow=none;html=1;rounded=0;entryX=0;entryY=0.5;entryDx=0;entryDy=0;exitX=1;exitY=0.5;exitDx=0;exitDy=0;" parent="1" source="wx6XdmQpY_lOMMu2Ngc3-124" edge="1">
                    <mxGeometry width="50" height="50" relative="1" as="geometry">
                        <mxPoint x="910" y="1080" as="sourcePoint"/>
                        <mxPoint x="900" y="1119.9999999999964" as="targetPoint"/>
                    </mxGeometry>
                </mxCell>
                <mxCell id="wx6XdmQpY_lOMMu2Ngc3-132" value="" style="endArrow=none;html=1;rounded=0;exitX=1;exitY=0.5;exitDx=0;exitDy=0;" parent="1" edge="1">
                    <mxGeometry width="50" height="50" relative="1" as="geometry">
                        <mxPoint x="979" y="1080" as="sourcePoint"/>
                        <mxPoint x="979" y="1121" as="targetPoint"/>
                    </mxGeometry>
                </mxCell>
                <mxCell id="wx6XdmQpY_lOMMu2Ngc3-136" value="" style="endArrow=classic;startArrow=classic;html=1;rounded=0;" parent="1" edge="1">
                    <mxGeometry width="50" height="50" relative="1" as="geometry">
                        <mxPoint x="1010" y="1000" as="sourcePoint"/>
                        <mxPoint x="1010" y="1040" as="targetPoint"/>
                    </mxGeometry>
                </mxCell>
                <mxCell id="wx6XdmQpY_lOMMu2Ngc3-137" value="" style="endArrow=none;html=1;rounded=0;entryX=0.655;entryY=0.968;entryDx=0;entryDy=0;entryPerimeter=0;exitX=1;exitY=0.5;exitDx=0;exitDy=0;" parent="1" source="wx6XdmQpY_lOMMu2Ngc3-127" target="wx6XdmQpY_lOMMu2Ngc3-121" edge="1">
                    <mxGeometry width="50" height="50" relative="1" as="geometry">
                        <mxPoint x="980" y="1040" as="sourcePoint"/>
                        <mxPoint x="980" y="960" as="targetPoint"/>
                    </mxGeometry>
                </mxCell>
                <mxCell id="wx6XdmQpY_lOMMu2Ngc3-141" value="Validé&lt;br&gt;Code:{oui,non}" style="ellipse;whiteSpace=wrap;html=1;dashed=1;rotation=-90;" parent="1" vertex="1">
                    <mxGeometry x="840" y="1140" width="120" height="80" as="geometry"/>
                </mxCell>
                <mxCell id="wx6XdmQpY_lOMMu2Ngc3-146" value="" style="endArrow=classic;startArrow=classic;html=1;rounded=0;" parent="1" edge="1">
                    <mxGeometry width="50" height="50" relative="1" as="geometry">
                        <mxPoint x="929.9999999999998" y="1041" as="sourcePoint"/>
                        <mxPoint x="929.9999999999998" y="1081" as="targetPoint"/>
                    </mxGeometry>
                </mxCell>
                <mxCell id="wx6XdmQpY_lOMMu2Ngc3-210" value="" style="group;rotation=90;" parent="1" vertex="1" connectable="0">
                    <mxGeometry x="780" y="400" width="80" height="40" as="geometry"/>
                </mxCell>
                <mxCell id="wx6XdmQpY_lOMMu2Ngc3-211" value="" style="rounded=0;whiteSpace=wrap;html=1;rotation=90;" parent="wx6XdmQpY_lOMMu2Ngc3-210" vertex="1">
                    <mxGeometry x="20" y="-20" width="40" height="40" as="geometry"/>
                </mxCell>
                <mxCell id="wx6XdmQpY_lOMMu2Ngc3-212" value="" style="rounded=0;whiteSpace=wrap;html=1;rotation=90;" parent="wx6XdmQpY_lOMMu2Ngc3-210" vertex="1">
                    <mxGeometry x="20" y="20" width="40" height="40" as="geometry"/>
                </mxCell>
                <mxCell id="wx6XdmQpY_lOMMu2Ngc3-213" value="" style="endArrow=none;html=1;rounded=0;entryX=0;entryY=0.5;entryDx=0;entryDy=0;exitX=1;exitY=0.5;exitDx=0;exitDy=0;" parent="1" edge="1">
                    <mxGeometry width="50" height="50" relative="1" as="geometry">
                        <mxPoint x="820.5799999999999" y="380" as="sourcePoint"/>
                        <mxPoint x="820.5799999999999" y="300" as="targetPoint"/>
                    </mxGeometry>
                </mxCell>
                <mxCell id="wx6XdmQpY_lOMMu2Ngc3-214" value="" style="endArrow=classic;startArrow=classic;html=1;rounded=0;" parent="1" edge="1">
                    <mxGeometry width="50" height="50" relative="1" as="geometry">
                        <mxPoint x="790" y="460" as="sourcePoint"/>
                        <mxPoint x="790" y="380" as="targetPoint"/>
                    </mxGeometry>
                </mxCell>
                <mxCell id="wx6XdmQpY_lOMMu2Ngc3-216" value="VOTE&lt;br&gt;(vote_incident)&lt;br&gt;{up_vote,down_vote}" style="ellipse;whiteSpace=wrap;html=1;rotation=-90;" parent="1" vertex="1">
                    <mxGeometry x="761" y="200" width="120" height="80" as="geometry"/>
                </mxCell>
                <mxCell id="wx6XdmQpY_lOMMu2Ngc3-217" value="" style="endArrow=none;dashed=1;html=1;dashPattern=1 3;strokeWidth=2;rounded=0;entryX=0.5;entryY=1;entryDx=0;entryDy=0;startArrow=none;" parent="1" source="wx6XdmQpY_lOMMu2Ngc3-218" target="wx6XdmQpY_lOMMu2Ngc3-212" edge="1">
                    <mxGeometry width="50" height="50" relative="1" as="geometry">
                        <mxPoint x="675" y="580" as="sourcePoint"/>
                        <mxPoint x="725" y="530" as="targetPoint"/>
                    </mxGeometry>
                </mxCell>
                <mxCell id="wx6XdmQpY_lOMMu2Ngc3-218" value="U" style="ellipse;whiteSpace=wrap;html=1;strokeColor=#1900FF;fillColor=none;" parent="1" vertex="1">
                    <mxGeometry x="670" y="430" width="20" height="20" as="geometry"/>
                </mxCell>
                <mxCell id="wx6XdmQpY_lOMMu2Ngc3-219" value="" style="endArrow=none;dashed=1;html=1;dashPattern=1 3;strokeWidth=2;rounded=0;entryX=0.5;entryY=1;entryDx=0;entryDy=0;exitX=0.5;exitY=0;exitDx=0;exitDy=0;" parent="1" source="wx6XdmQpY_lOMMu2Ngc3-77" target="wx6XdmQpY_lOMMu2Ngc3-218" edge="1">
                    <mxGeometry width="50" height="50" relative="1" as="geometry">
                        <mxPoint x="675" y="580" as="sourcePoint"/>
                        <mxPoint x="800" y="440" as="targetPoint"/>
                    </mxGeometry>
                </mxCell>
                <mxCell id="wx6XdmQpY_lOMMu2Ngc3-223" value="" style="ellipse;whiteSpace=wrap;html=1;fillColor=#1900FF;strokeColor=#1900FF;" parent="1" vertex="1">
                    <mxGeometry x="975" y="995" width="10" height="10" as="geometry"/>
                </mxCell>
                <mxCell id="wx6XdmQpY_lOMMu2Ngc3-224" value="" style="ellipse;whiteSpace=wrap;html=1;fillColor=#1900FF;strokeColor=#1900FF;" parent="1" vertex="1">
                    <mxGeometry x="894" y="995" width="10" height="10" as="geometry"/>
                </mxCell>
                <mxCell id="wx6XdmQpY_lOMMu2Ngc3-104" value="" style="endArrow=classic;startArrow=classic;html=1;rounded=0;" parent="1" edge="1">
                    <mxGeometry width="50" height="50" relative="1" as="geometry">
                        <mxPoint x="910" y="761" as="sourcePoint"/>
                        <mxPoint x="910" y="720" as="targetPoint"/>
                    </mxGeometry>
                </mxCell>
                <mxCell id="wx6XdmQpY_lOMMu2Ngc3-233" value="" style="group;rotation=-270;" parent="1" vertex="1" connectable="0">
                    <mxGeometry x="420" y="740" width="80" height="40" as="geometry"/>
                </mxCell>
                <mxCell id="wx6XdmQpY_lOMMu2Ngc3-234" value="" style="rounded=0;whiteSpace=wrap;html=1;rotation=-270;" parent="wx6XdmQpY_lOMMu2Ngc3-233" vertex="1">
                    <mxGeometry x="20" y="-20" width="40" height="40" as="geometry"/>
                </mxCell>
                <mxCell id="wx6XdmQpY_lOMMu2Ngc3-235" value="" style="rounded=0;whiteSpace=wrap;html=1;rotation=-270;" parent="wx6XdmQpY_lOMMu2Ngc3-233" vertex="1">
                    <mxGeometry x="20" y="20" width="40" height="40" as="geometry"/>
                </mxCell>
                <mxCell id="wx6XdmQpY_lOMMu2Ngc3-236" value="" style="endArrow=none;html=1;rounded=0;entryX=0.284;entryY=0.055;entryDx=0;entryDy=0;entryPerimeter=0;" parent="1" edge="1">
                    <mxGeometry width="50" height="50" relative="1" as="geometry">
                        <mxPoint x="460" y="720" as="sourcePoint"/>
                        <mxPoint x="460" y="662" as="targetPoint"/>
                    </mxGeometry>
                </mxCell>
                <mxCell id="wx6XdmQpY_lOMMu2Ngc3-237" value="" style="endArrow=none;html=1;rounded=0;exitX=1;exitY=0.5;exitDx=0;exitDy=0;" parent="1" source="wx6XdmQpY_lOMMu2Ngc3-235" edge="1">
                    <mxGeometry width="50" height="50" relative="1" as="geometry">
                        <mxPoint x="450" y="800" as="sourcePoint"/>
                        <mxPoint x="460" y="854" as="targetPoint"/>
                    </mxGeometry>
                </mxCell>
                <mxCell id="wx6XdmQpY_lOMMu2Ngc3-241" value="" style="ellipse;whiteSpace=wrap;html=1;fillColor=#1900FF;strokeColor=#1900FF;rotation=-180;" parent="1" vertex="1">
                    <mxGeometry x="455" y="656" width="10" height="10" as="geometry"/>
                </mxCell>
                <mxCell id="wx6XdmQpY_lOMMu2Ngc3-239" value="" style="endArrow=classic;startArrow=classic;html=1;rounded=0;" parent="1" edge="1">
                    <mxGeometry width="50" height="50" relative="1" as="geometry">
                        <mxPoint x="430" y="720" as="sourcePoint"/>
                        <mxPoint x="430" y="761" as="targetPoint"/>
                    </mxGeometry>
                </mxCell>
                <mxCell id="wx6XdmQpY_lOMMu2Ngc3-243" value="ADRESSE" style="ellipse;whiteSpace=wrap;html=1;rotation=0;" parent="1" vertex="1">
                    <mxGeometry x="400" y="852" width="120" height="80" as="geometry"/>
                </mxCell>
                <mxCell id="wx6XdmQpY_lOMMu2Ngc3-261" value="" style="group;rotation=-270;" parent="1" vertex="1" connectable="0">
                    <mxGeometry x="380.5" y="1003" width="80" height="40" as="geometry"/>
                </mxCell>
                <mxCell id="wx6XdmQpY_lOMMu2Ngc3-262" value="" style="rounded=0;whiteSpace=wrap;html=1;rotation=-270;" parent="wx6XdmQpY_lOMMu2Ngc3-261" vertex="1">
                    <mxGeometry x="20" y="-20" width="40" height="40" as="geometry"/>
                </mxCell>
                <mxCell id="wx6XdmQpY_lOMMu2Ngc3-263" value="" style="rounded=0;whiteSpace=wrap;html=1;rotation=-270;" parent="wx6XdmQpY_lOMMu2Ngc3-261" vertex="1">
                    <mxGeometry x="20" y="20" width="40" height="40" as="geometry"/>
                </mxCell>
                <mxCell id="wx6XdmQpY_lOMMu2Ngc3-264" value="" style="group;rotation=-90;" parent="1" vertex="1" connectable="0">
                    <mxGeometry x="460.5" y="1003" width="80" height="40" as="geometry"/>
                </mxCell>
                <mxCell id="wx6XdmQpY_lOMMu2Ngc3-265" value="" style="rounded=0;whiteSpace=wrap;html=1;rotation=-90;" parent="wx6XdmQpY_lOMMu2Ngc3-264" vertex="1">
                    <mxGeometry x="20" y="20" width="40" height="40" as="geometry"/>
                </mxCell>
                <mxCell id="wx6XdmQpY_lOMMu2Ngc3-266" value="" style="rounded=0;whiteSpace=wrap;html=1;rotation=-90;" parent="wx6XdmQpY_lOMMu2Ngc3-264" vertex="1">
                    <mxGeometry x="20" y="-20" width="40" height="40" as="geometry"/>
                </mxCell>
                <mxCell id="wx6XdmQpY_lOMMu2Ngc3-268" value="Ville" style="ellipse;whiteSpace=wrap;html=1;dashed=1;rotation=-90;" parent="1" vertex="1">
                    <mxGeometry x="439.5" y="1123" width="120" height="80" as="geometry"/>
                </mxCell>
                <mxCell id="wx6XdmQpY_lOMMu2Ngc3-269" value="" style="endArrow=none;html=1;rounded=0;entryX=0;entryY=0.5;entryDx=0;entryDy=0;exitX=1;exitY=0.5;exitDx=0;exitDy=0;" parent="1" source="wx6XdmQpY_lOMMu2Ngc3-263" edge="1">
                    <mxGeometry width="50" height="50" relative="1" as="geometry">
                        <mxPoint x="430.5" y="1063" as="sourcePoint"/>
                        <mxPoint x="420.5" y="1102.9999999999964" as="targetPoint"/>
                    </mxGeometry>
                </mxCell>
                <mxCell id="wx6XdmQpY_lOMMu2Ngc3-270" value="" style="endArrow=none;html=1;rounded=0;exitX=1;exitY=0.5;exitDx=0;exitDy=0;" parent="1" edge="1">
                    <mxGeometry width="50" height="50" relative="1" as="geometry">
                        <mxPoint x="499.5" y="1063" as="sourcePoint"/>
                        <mxPoint x="499.5" y="1104" as="targetPoint"/>
                    </mxGeometry>
                </mxCell>
                <mxCell id="wx6XdmQpY_lOMMu2Ngc3-271" value="" style="endArrow=classic;startArrow=classic;html=1;rounded=0;" parent="1" edge="1">
                    <mxGeometry width="50" height="50" relative="1" as="geometry">
                        <mxPoint x="530.5" y="983" as="sourcePoint"/>
                        <mxPoint x="530.5" y="1023" as="targetPoint"/>
                    </mxGeometry>
                </mxCell>
                <mxCell id="wx6XdmQpY_lOMMu2Ngc3-272" value="Rue&amp;nbsp;" style="ellipse;whiteSpace=wrap;html=1;dashed=1;rotation=-90;" parent="1" vertex="1">
                    <mxGeometry x="360.5" y="1123" width="120" height="80" as="geometry"/>
                </mxCell>
                <mxCell id="wx6XdmQpY_lOMMu2Ngc3-276" value="" style="group;rotation=-90;" parent="1" vertex="1" connectable="0">
                    <mxGeometry x="541" y="1003" width="80" height="40" as="geometry"/>
                </mxCell>
                <mxCell id="wx6XdmQpY_lOMMu2Ngc3-277" value="" style="rounded=0;whiteSpace=wrap;html=1;rotation=-90;" parent="wx6XdmQpY_lOMMu2Ngc3-276" vertex="1">
                    <mxGeometry x="20" y="20" width="40" height="40" as="geometry"/>
                </mxCell>
                <mxCell id="wx6XdmQpY_lOMMu2Ngc3-278" value="" style="rounded=0;whiteSpace=wrap;html=1;rotation=-90;" parent="wx6XdmQpY_lOMMu2Ngc3-276" vertex="1">
                    <mxGeometry x="20" y="-20" width="40" height="40" as="geometry"/>
                </mxCell>
                <mxCell id="wx6XdmQpY_lOMMu2Ngc3-279" value="CodePostal&amp;nbsp;" style="ellipse;whiteSpace=wrap;html=1;dashed=1;rotation=-90;" parent="1" vertex="1">
                    <mxGeometry x="520" y="1123" width="120" height="80" as="geometry"/>
                </mxCell>
                <mxCell id="wx6XdmQpY_lOMMu2Ngc3-280" value="" style="endArrow=none;html=1;rounded=0;exitX=1;exitY=0.5;exitDx=0;exitDy=0;" parent="1" edge="1">
                    <mxGeometry width="50" height="50" relative="1" as="geometry">
                        <mxPoint x="580" y="1063" as="sourcePoint"/>
                        <mxPoint x="580" y="1103.9999999999998" as="targetPoint"/>
                    </mxGeometry>
                </mxCell>
                <mxCell id="wx6XdmQpY_lOMMu2Ngc3-281" value="" style="endArrow=classic;startArrow=classic;html=1;rounded=0;" parent="1" edge="1">
                    <mxGeometry width="50" height="50" relative="1" as="geometry">
                        <mxPoint x="611" y="983" as="sourcePoint"/>
                        <mxPoint x="611" y="1023" as="targetPoint"/>
                    </mxGeometry>
                </mxCell>
                <mxCell id="wx6XdmQpY_lOMMu2Ngc3-283" value="" style="group;rotation=-90;" parent="1" vertex="1" connectable="0">
                    <mxGeometry x="301" y="1003" width="80" height="40" as="geometry"/>
                </mxCell>
                <mxCell id="wx6XdmQpY_lOMMu2Ngc3-284" value="" style="rounded=0;whiteSpace=wrap;html=1;rotation=-90;" parent="wx6XdmQpY_lOMMu2Ngc3-283" vertex="1">
                    <mxGeometry x="20" y="20" width="40" height="40" as="geometry"/>
                </mxCell>
                <mxCell id="wx6XdmQpY_lOMMu2Ngc3-285" value="" style="rounded=0;whiteSpace=wrap;html=1;rotation=-90;" parent="wx6XdmQpY_lOMMu2Ngc3-283" vertex="1">
                    <mxGeometry x="20" y="-20" width="40" height="40" as="geometry"/>
                </mxCell>
                <mxCell id="wx6XdmQpY_lOMMu2Ngc3-286" value="Nr° +" style="ellipse;whiteSpace=wrap;html=1;dashed=1;rotation=-90;" parent="1" vertex="1">
                    <mxGeometry x="280" y="1123" width="120" height="80" as="geometry"/>
                </mxCell>
                <mxCell id="wx6XdmQpY_lOMMu2Ngc3-287" value="" style="endArrow=none;html=1;rounded=0;exitX=1;exitY=0.5;exitDx=0;exitDy=0;" parent="1" edge="1">
                    <mxGeometry width="50" height="50" relative="1" as="geometry">
                        <mxPoint x="340" y="1063" as="sourcePoint"/>
                        <mxPoint x="340" y="1103.9999999999998" as="targetPoint"/>
                    </mxGeometry>
                </mxCell>
                <mxCell id="wx6XdmQpY_lOMMu2Ngc3-288" value="" style="endArrow=classic;startArrow=classic;html=1;rounded=0;" parent="1" edge="1">
                    <mxGeometry width="50" height="50" relative="1" as="geometry">
                        <mxPoint x="371" y="983" as="sourcePoint"/>
                        <mxPoint x="371" y="1023" as="targetPoint"/>
                    </mxGeometry>
                </mxCell>
                <mxCell id="wx6XdmQpY_lOMMu2Ngc3-290" value="" style="endArrow=none;html=1;rounded=0;exitX=1;exitY=0.5;exitDx=0;exitDy=0;entryX=0.011;entryY=0.616;entryDx=0;entryDy=0;entryPerimeter=0;" parent="1" source="wx6XdmQpY_lOMMu2Ngc3-285" target="wx6XdmQpY_lOMMu2Ngc3-243" edge="1">
                    <mxGeometry width="50" height="50" relative="1" as="geometry">
                        <mxPoint x="300" y="972" as="sourcePoint"/>
                        <mxPoint x="380" y="912" as="targetPoint"/>
                    </mxGeometry>
                </mxCell>
                <mxCell id="wx6XdmQpY_lOMMu2Ngc3-291" value="" style="endArrow=none;html=1;rounded=0;exitX=0;exitY=0.5;exitDx=0;exitDy=0;entryX=0.331;entryY=0.967;entryDx=0;entryDy=0;entryPerimeter=0;" parent="1" source="wx6XdmQpY_lOMMu2Ngc3-262" target="wx6XdmQpY_lOMMu2Ngc3-243" edge="1">
                    <mxGeometry width="50" height="50" relative="1" as="geometry">
                        <mxPoint x="450" y="972" as="sourcePoint"/>
                        <mxPoint x="440" y="932" as="targetPoint"/>
                    </mxGeometry>
                </mxCell>
                <mxCell id="wx6XdmQpY_lOMMu2Ngc3-293" value="" style="endArrow=none;html=1;rounded=0;entryX=0.663;entryY=0.968;entryDx=0;entryDy=0;entryPerimeter=0;exitX=1;exitY=0.5;exitDx=0;exitDy=0;" parent="1" source="wx6XdmQpY_lOMMu2Ngc3-266" target="wx6XdmQpY_lOMMu2Ngc3-243" edge="1">
                    <mxGeometry width="50" height="50" relative="1" as="geometry">
                        <mxPoint x="500" y="982" as="sourcePoint"/>
                        <mxPoint x="550" y="932" as="targetPoint"/>
                    </mxGeometry>
                </mxCell>
                <mxCell id="wx6XdmQpY_lOMMu2Ngc3-294" value="" style="endArrow=none;html=1;rounded=0;exitX=1;exitY=0.5;exitDx=0;exitDy=0;entryX=0.981;entryY=0.621;entryDx=0;entryDy=0;entryPerimeter=0;" parent="1" source="wx6XdmQpY_lOMMu2Ngc3-278" target="wx6XdmQpY_lOMMu2Ngc3-243" edge="1">
                    <mxGeometry width="50" height="50" relative="1" as="geometry">
                        <mxPoint x="576" y="967" as="sourcePoint"/>
                        <mxPoint x="626" y="917" as="targetPoint"/>
                    </mxGeometry>
                </mxCell>
                <mxCell id="wx6XdmQpY_lOMMu2Ngc3-289" value="" style="ellipse;whiteSpace=wrap;html=1;fillColor=#1900FF;strokeColor=#1900FF;" parent="1" vertex="1">
                    <mxGeometry x="397" y="895" width="10" height="10" as="geometry"/>
                </mxCell>
                <mxCell id="wx6XdmQpY_lOMMu2Ngc3-275" value="" style="ellipse;whiteSpace=wrap;html=1;fillColor=#1900FF;strokeColor=#1900FF;" parent="1" vertex="1">
                    <mxGeometry x="434.5" y="924" width="10" height="10" as="geometry"/>
                </mxCell>
                <mxCell id="wx6XdmQpY_lOMMu2Ngc3-274" value="" style="ellipse;whiteSpace=wrap;html=1;fillColor=#1900FF;strokeColor=#1900FF;" parent="1" vertex="1">
                    <mxGeometry x="474.5" y="925" width="10" height="10" as="geometry"/>
                </mxCell>
                <mxCell id="wx6XdmQpY_lOMMu2Ngc3-282" value="" style="ellipse;whiteSpace=wrap;html=1;fillColor=#1900FF;strokeColor=#1900FF;" parent="1" vertex="1">
                    <mxGeometry x="513" y="897" width="10" height="10" as="geometry"/>
                </mxCell>
                <mxCell id="wx6XdmQpY_lOMMu2Ngc3-295" value="" style="endArrow=classic;startArrow=classic;html=1;rounded=0;" parent="1" edge="1">
                    <mxGeometry width="50" height="50" relative="1" as="geometry">
                        <mxPoint x="449.5" y="982" as="sourcePoint"/>
                        <mxPoint x="449.5" y="1022" as="targetPoint"/>
                    </mxGeometry>
                </mxCell>
                <mxCell id="wx6XdmQpY_lOMMu2Ngc3-299" value="" style="endArrow=none;html=1;rounded=0;entryX=0.34;entryY=0.972;entryDx=0;entryDy=0;entryPerimeter=0;" parent="1" target="wx6XdmQpY_lOMMu2Ngc3-36" edge="1">
                    <mxGeometry width="50" height="50" relative="1" as="geometry">
                        <mxPoint x="360.5" y="720" as="sourcePoint"/>
                        <mxPoint x="390" y="670" as="targetPoint"/>
                    </mxGeometry>
                </mxCell>
                <mxCell id="wx6XdmQpY_lOMMu2Ngc3-110" value="" style="ellipse;whiteSpace=wrap;html=1;fillColor=#1900FF;strokeColor=#1900FF;" parent="1" vertex="1">
                    <mxGeometry x="418.5" y="652" width="10" height="10" as="geometry"/>
                </mxCell>
                <mxCell id="wx6XdmQpY_lOMMu2Ngc3-300" value="" style="ellipse;whiteSpace=wrap;html=1;fillColor=#1900FF;strokeColor=#1900FF;" parent="1" vertex="1">
                    <mxGeometry x="418" y="538" width="10" height="10" as="geometry"/>
                </mxCell>
                <mxCell id="wx6XdmQpY_lOMMu2Ngc3-301" value="" style="endArrow=none;html=1;rounded=0;" parent="1" edge="1">
                    <mxGeometry width="50" height="50" relative="1" as="geometry">
                        <mxPoint x="940" y="540" as="sourcePoint"/>
                        <mxPoint x="940" y="460" as="targetPoint"/>
                    </mxGeometry>
                </mxCell>
                <mxCell id="wx6XdmQpY_lOMMu2Ngc3-113" value="" style="ellipse;whiteSpace=wrap;html=1;fillColor=#1900FF;strokeColor=#1900FF;" parent="1" vertex="1">
                    <mxGeometry x="935" y="535" width="10" height="10" as="geometry"/>
                </mxCell>
                <mxCell id="wx6XdmQpY_lOMMu2Ngc3-302" value="" style="group" parent="1" vertex="1" connectable="0">
                    <mxGeometry x="820" y="460" width="53" height="96" as="geometry"/>
                </mxCell>
                <mxCell id="wx6XdmQpY_lOMMu2Ngc3-208" value="" style="endArrow=none;html=1;rounded=0;startArrow=none;" parent="wx6XdmQpY_lOMMu2Ngc3-302" edge="1">
                    <mxGeometry width="50" height="50" relative="1" as="geometry">
                        <mxPoint x="53" y="96" as="sourcePoint"/>
                        <mxPoint y="33.81999999999999" as="targetPoint"/>
                    </mxGeometry>
                </mxCell>
                <mxCell id="wx6XdmQpY_lOMMu2Ngc3-215" value="" style="endArrow=none;html=1;rounded=0;" parent="wx6XdmQpY_lOMMu2Ngc3-302" edge="1">
                    <mxGeometry width="50" height="50" relative="1" as="geometry">
                        <mxPoint y="34" as="sourcePoint"/>
                        <mxPoint as="targetPoint"/>
                    </mxGeometry>
                </mxCell>
                <mxCell id="wx6XdmQpY_lOMMu2Ngc3-303" value="" style="group;flipH=1;" parent="1" vertex="1" connectable="0">
                    <mxGeometry x="1008" y="460" width="53" height="94" as="geometry"/>
                </mxCell>
                <mxCell id="wx6XdmQpY_lOMMu2Ngc3-304" value="" style="endArrow=none;html=1;rounded=0;startArrow=none;" parent="wx6XdmQpY_lOMMu2Ngc3-303" edge="1">
                    <mxGeometry width="50" height="50" relative="1" as="geometry">
                        <mxPoint y="94" as="sourcePoint"/>
                        <mxPoint x="53" y="33.115416666666654" as="targetPoint"/>
                    </mxGeometry>
                </mxCell>
                <mxCell id="wx6XdmQpY_lOMMu2Ngc3-305" value="" style="endArrow=none;html=1;rounded=0;" parent="wx6XdmQpY_lOMMu2Ngc3-303" edge="1">
                    <mxGeometry width="50" height="50" relative="1" as="geometry">
                        <mxPoint x="53" y="33.291666666666664" as="sourcePoint"/>
                        <mxPoint x="53" as="targetPoint"/>
                    </mxGeometry>
                </mxCell>
                <mxCell id="wx6XdmQpY_lOMMu2Ngc3-115" value="" style="ellipse;whiteSpace=wrap;html=1;fillColor=#1900FF;strokeColor=#1900FF;" parent="1" vertex="1">
                    <mxGeometry x="1003" y="549" width="10" height="10" as="geometry"/>
                </mxCell>
                <mxCell id="wx6XdmQpY_lOMMu2Ngc3-307" value="à comme" style="text;html=1;align=center;verticalAlign=middle;resizable=0;points=[];autosize=1;strokeColor=none;fillColor=none;fontStyle=1" parent="1" vertex="1">
                    <mxGeometry x="225" y="420" width="80" height="30" as="geometry"/>
                </mxCell>
                <mxCell id="NtDsLSQMR17nZNyILTm_-1" value="&lt;b style=&quot;font-size: 14px;&quot;&gt;&lt;font style=&quot;font-size: 14px;&quot;&gt;Utilisateurs&lt;/font&gt;(UserName, mot_de_passe,name,email)&lt;/b&gt;" style="text;html=1;align=center;verticalAlign=middle;resizable=0;points=[];autosize=1;strokeColor=none;fillColor=none;" parent="1" vertex="1">
                    <mxGeometry x="1100" y="785" width="360" height="30" as="geometry"/>
                </mxCell>
                <mxCell id="NtDsLSQMR17nZNyILTm_-2" value="&lt;b style=&quot;font-size: 14px;&quot;&gt;&lt;font style=&quot;font-size: 14px;&quot;&gt;Role&lt;/font&gt;(&lt;span&gt;UserName&lt;/span&gt;,&amp;nbsp; &lt;span&gt;Validé&amp;nbsp; &amp;nbsp;,&amp;nbsp; &amp;nbsp; Moderateur&lt;/span&gt;)&lt;br&gt;&lt;/b&gt;" style="text;html=1;align=center;verticalAlign=middle;resizable=0;points=[];autosize=1;strokeColor=none;fillColor=none;fontStyle=0" parent="1" vertex="1">
                    <mxGeometry x="1100" y="822" width="290" height="30" as="geometry"/>
                </mxCell>
                <mxCell id="NtDsLSQMR17nZNyILTm_-4" value="&lt;b&gt;&lt;font style=&quot;font-size: 12px;&quot;&gt;{oui, non}&lt;/font&gt;&lt;/b&gt;" style="text;html=1;align=center;verticalAlign=middle;resizable=0;points=[];autosize=1;strokeColor=none;fillColor=none;fontSize=14;" parent="1" vertex="1">
                    <mxGeometry x="1202" y="840" width="80" height="30" as="geometry"/>
                </mxCell>
                <mxCell id="NtDsLSQMR17nZNyILTm_-5" value="&lt;b&gt;&lt;font style=&quot;font-size: 12px;&quot;&gt;{oui, non}&lt;/font&gt;&lt;/b&gt;" style="text;html=1;align=center;verticalAlign=middle;resizable=0;points=[];autosize=1;strokeColor=none;fillColor=none;fontSize=14;" parent="1" vertex="1">
                    <mxGeometry x="1292" y="840" width="80" height="30" as="geometry"/>
                </mxCell>
                <mxCell id="NtDsLSQMR17nZNyILTm_-7" value="&lt;b style=&quot;font-size: 14px;&quot;&gt;Incident(&amp;nbsp; &amp;nbsp; id&amp;nbsp; &amp;nbsp; ,&amp;nbsp;&amp;nbsp;&lt;/b&gt;&lt;span&gt;&lt;b style=&quot;font-size: 14px;&quot;&gt;UserName&amp;nbsp;&amp;nbsp;&lt;/b&gt;&lt;b style=&quot;font-size: 14px;&quot;&gt;,&amp;nbsp;&amp;nbsp;&lt;/b&gt;&lt;b style=&quot;font-size: 14px;&quot;&gt;vote_incident&amp;nbsp; ,&amp;nbsp; description&amp;nbsp; ,&amp;nbsp; date&amp;nbsp;&amp;nbsp;&lt;/b&gt;&lt;b style=&quot;font-size: 14px;&quot;&gt;)&lt;/b&gt;&lt;/span&gt;" style="text;html=1;align=center;verticalAlign=middle;resizable=0;points=[];autosize=1;strokeColor=none;fillColor=none;fontStyle=0" parent="1" vertex="1">
                    <mxGeometry x="1100" y="914" width="470" height="30" as="geometry"/>
                </mxCell>
                <mxCell id="NtDsLSQMR17nZNyILTm_-8" value="&lt;b style=&quot;font-size: 14px;&quot;&gt;&lt;font style=&quot;font-size: 14px;&quot;&gt;Vote&lt;/font&gt;(incident_id,&lt;/b&gt;&lt;span&gt;&lt;b style=&quot;font-size: 14px;&quot;&gt;UserName&lt;/b&gt;&lt;b style=&quot;font-size: 14px;&quot;&gt;,&lt;/b&gt;&lt;b style=&quot;font-size: 14px;&quot;&gt;vote_incident&lt;/b&gt;&lt;b style=&quot;font-size: 14px;&quot;&gt;)&lt;/b&gt;&lt;/span&gt;" style="text;html=1;align=center;verticalAlign=middle;resizable=0;points=[];autosize=1;strokeColor=none;fillColor=none;fontStyle=0" parent="1" vertex="1">
                    <mxGeometry x="1102" y="867" width="300" height="30" as="geometry"/>
                </mxCell>
                <mxCell id="NtDsLSQMR17nZNyILTm_-9" value="" style="endArrow=none;html=1;rounded=0;fontSize=12;" parent="1" edge="1">
                    <mxGeometry width="50" height="50" relative="1" as="geometry">
                        <mxPoint x="1192" y="811" as="sourcePoint"/>
                        <mxPoint x="1262" y="811" as="targetPoint"/>
                    </mxGeometry>
                </mxCell>
                <mxCell id="NtDsLSQMR17nZNyILTm_-10" value="" style="endArrow=none;html=1;rounded=0;fontSize=12;" parent="1" edge="1">
                    <mxGeometry width="50" height="50" relative="1" as="geometry">
                        <mxPoint x="1146" y="845" as="sourcePoint"/>
                        <mxPoint x="1216" y="845" as="targetPoint"/>
                    </mxGeometry>
                </mxCell>
                <mxCell id="NtDsLSQMR17nZNyILTm_-11" value="" style="endArrow=none;html=1;rounded=0;fontSize=12;" parent="1" edge="1">
                    <mxGeometry width="50" height="50" relative="1" as="geometry">
                        <mxPoint x="1229" y="845" as="sourcePoint"/>
                        <mxPoint x="1370" y="845" as="targetPoint"/>
                    </mxGeometry>
                </mxCell>
                <mxCell id="NtDsLSQMR17nZNyILTm_-12" value="" style="endArrow=none;html=1;rounded=0;fontSize=12;endSize=6;jumpSize=3;" parent="1" edge="1">
                    <mxGeometry width="50" height="50" relative="1" as="geometry">
                        <mxPoint x="1226" y="891.71" as="sourcePoint"/>
                        <mxPoint x="1390" y="892" as="targetPoint"/>
                    </mxGeometry>
                </mxCell>
                <mxCell id="NtDsLSQMR17nZNyILTm_-13" value="" style="endArrow=none;html=1;rounded=0;fontSize=12;endSize=6;jumpSize=3;" parent="1" edge="1">
                    <mxGeometry width="50" height="50" relative="1" as="geometry">
                        <mxPoint x="1226" y="897.0000000000002" as="sourcePoint"/>
                        <mxPoint x="1390" y="897.29" as="targetPoint"/>
                    </mxGeometry>
                </mxCell>
                <mxCell id="NtDsLSQMR17nZNyILTm_-15" value="" style="endArrow=none;html=1;rounded=0;fontSize=12;" parent="1" edge="1">
                    <mxGeometry width="50" height="50" relative="1" as="geometry">
                        <mxPoint x="1229" y="848.82" as="sourcePoint"/>
                        <mxPoint x="1370" y="848.82" as="targetPoint"/>
                    </mxGeometry>
                </mxCell>
                <mxCell id="NtDsLSQMR17nZNyILTm_-16" value="" style="endArrow=none;html=1;rounded=0;fontSize=12;endSize=6;jumpSize=3;entryX=0.426;entryY=0.867;entryDx=0;entryDy=0;entryPerimeter=0;" parent="1" edge="1">
                    <mxGeometry width="50" height="50" relative="1" as="geometry">
                        <mxPoint x="1180" y="940" as="sourcePoint"/>
                        <mxPoint x="1298.22" y="940.01" as="targetPoint"/>
                    </mxGeometry>
                </mxCell>
                <mxCell id="NtDsLSQMR17nZNyILTm_-17" value="" style="endArrow=none;html=1;rounded=0;fontSize=12;endSize=6;jumpSize=3;entryX=0.419;entryY=1.083;entryDx=0;entryDy=0;entryPerimeter=0;" parent="1" target="NtDsLSQMR17nZNyILTm_-7" edge="1">
                    <mxGeometry width="50" height="50" relative="1" as="geometry">
                        <mxPoint x="1180" y="947" as="sourcePoint"/>
                        <mxPoint x="1260" y="947" as="targetPoint"/>
                    </mxGeometry>
                </mxCell>
                <mxCell id="NtDsLSQMR17nZNyILTm_-18" value="&lt;b style=&quot;font-size: 14px;&quot;&gt;Adresse(&amp;nbsp; incident_id&amp;nbsp; &amp;nbsp; ,&amp;nbsp; Nr_maison(+)&lt;/b&gt;&lt;span&gt;&lt;b style=&quot;font-size: 14px;&quot;&gt;&amp;nbsp;&amp;nbsp;&lt;/b&gt;&lt;b style=&quot;font-size: 14px;&quot;&gt;,&amp;nbsp; rue&lt;/b&gt;&lt;b style=&quot;font-size: 14px;&quot;&gt;&amp;nbsp; ,&amp;nbsp; ville&amp;nbsp; ,&amp;nbsp; codepostal&amp;nbsp;&amp;nbsp;&lt;/b&gt;&lt;b style=&quot;font-size: 14px;&quot;&gt;)&lt;/b&gt;&lt;/span&gt;" style="text;html=1;align=center;verticalAlign=middle;resizable=0;points=[];autosize=1;strokeColor=none;fillColor=none;fontStyle=0" parent="1" vertex="1">
                    <mxGeometry x="1097" y="973" width="480" height="30" as="geometry"/>
                </mxCell>
                <mxCell id="2" value="" style="group" vertex="1" connectable="0" parent="1">
                    <mxGeometry x="80" y="1320" width="880" height="480" as="geometry"/>
                </mxCell>
                <mxCell id="NtDsLSQMR17nZNyILTm_-19" value="Rmap" style="whiteSpace=wrap;html=1;fontSize=22;fontStyle=1" parent="2" vertex="1">
                    <mxGeometry x="200" width="480" height="40" as="geometry"/>
                </mxCell>
                <mxCell id="NtDsLSQMR17nZNyILTm_-21" value="&lt;h1&gt;&lt;span style=&quot;color: rgba(0, 0, 0, 0); font-family: monospace; font-size: 0px; font-weight: 400;&quot;&gt;%3CmxGraphModel%3E%3Croot%3E%3CmxCell%20id%3D%220%22%2F%3E%3CmxCell%20id%3D%221%22%20parent%3D%220%22%2F%3E%3CmxCell%20id%3D%222%22%20value%3D%22%26lt%3Bb%20style%3D%26quot%3Bfont-size%3A%2014px%3B%26quot%3B%26gt%3B%26lt%3Bfont%20style%3D%26quot%3Bfont-size%3A%2014px%3B%26quot%3B%26gt%3BUtilisateurs%26lt%3B%2Ffont%26gt%3B(UserName%2C%20mot_de_passe%2Cname%2Cemail)%26lt%3B%2Fb%26gt%3B%22%20style%3D%22text%3Bhtml%3D1%3Balign%3Dcenter%3BverticalAlign%3Dmiddle%3Bresizable%3D0%3Bpoints%3D%5B%5D%3Bautosize%3D1%3BstrokeColor%3Dnone%3BfillColor%3Dnone%3B%22%20vertex%3D%221%22%20parent%3D%221%22%3E%3CmxGeometry%20x%3D%221100%22%20y%3D%22785%22%20width%3D%22360%22%20height%3D%2230%22%20as%3D%22geometry%22%2F%3E%3C%2FmxCell%3E%3CmxCell%20id%3D%223%22%20value%3D%22%26lt%3Bb%20style%3D%26quot%3Bfont-size%3A%2014px%3B%26quot%3B%26gt%3B%26lt%3Bfont%20style%3D%26quot%3Bfont-size%3A%2014px%3B%26quot%3B%26gt%3BRole%26lt%3B%2Ffont%26gt%3B(%26lt%3Bspan%26gt%3BUserName%26lt%3B%2Fspan%26gt%3B%2C%26amp%3Bnbsp%3B%20%26lt%3Bspan%26gt%3BValid%C3%A9%26amp%3Bnbsp%3B%20%26amp%3Bnbsp%3B%2C%26amp%3Bnbsp%3B%20%26amp%3Bnbsp%3B%20Moderateur%26lt%3B%2Fspan%26gt%3B)%26lt%3Bbr%26gt%3B%26lt%3B%2Fb%26gt%3B%22%20style%3D%22text%3Bhtml%3D1%3Balign%3Dcenter%3BverticalAlign%3Dmiddle%3Bresizable%3D0%3Bpoints%3D%5B%5D%3Bautosize%3D1%3BstrokeColor%3Dnone%3BfillColor%3Dnone%3BfontStyle%3D0%22%20vertex%3D%221%22%20parent%3D%221%22%3E%3CmxGeometry%20x%3D%221100%22%20y%3D%22822%22%20width%3D%22290%22%20height%3D%2230%22%20as%3D%22geometry%22%2F%3E%3C%2FmxCell%3E%3CmxCell%20id%3D%224%22%20value%3D%22%26lt%3Bb%26gt%3B%26lt%3Bfont%20style%3D%26quot%3Bfont-size%3A%2012px%3B%26quot%3B%26gt%3B%7Boui%2C%20non%7D%26lt%3B%2Ffont%26gt%3B%26lt%3B%2Fb%26gt%3B%22%20style%3D%22text%3Bhtml%3D1%3Balign%3Dcenter%3BverticalAlign%3Dmiddle%3Bresizable%3D0%3Bpoints%3D%5B%5D%3Bautosize%3D1%3BstrokeColor%3Dnone%3BfillColor%3Dnone%3BfontSize%3D14%3B%22%20vertex%3D%221%22%20parent%3D%221%22%3E%3CmxGeometry%20x%3D%221202%22%20y%3D%22840%22%20width%3D%2280%22%20height%3D%2230%22%20as%3D%22geometry%22%2F%3E%3C%2FmxCell%3E%3CmxCell%20id%3D%225%22%20value%3D%22%26lt%3Bb%26gt%3B%26lt%3Bfont%20style%3D%26quot%3Bfont-size%3A%2012px%3B%26quot%3B%26gt%3B%7Boui%2C%20non%7D%26lt%3B%2Ffont%26gt%3B%26lt%3B%2Fb%26gt%3B%22%20style%3D%22text%3Bhtml%3D1%3Balign%3Dcenter%3BverticalAlign%3Dmiddle%3Bresizable%3D0%3Bpoints%3D%5B%5D%3Bautosize%3D1%3BstrokeColor%3Dnone%3BfillColor%3Dnone%3BfontSize%3D14%3B%22%20vertex%3D%221%22%20parent%3D%221%22%3E%3CmxGeometry%20x%3D%221292%22%20y%3D%22840%22%20width%3D%2280%22%20height%3D%2230%22%20as%3D%22geometry%22%2F%3E%3C%2FmxCell%3E%3CmxCell%20id%3D%226%22%20value%3D%22%26lt%3Bb%20style%3D%26quot%3Bfont-size%3A%2014px%3B%26quot%3B%26gt%3BIncident(%26amp%3Bnbsp%3B%20%26amp%3Bnbsp%3B%20id%26amp%3Bnbsp%3B%20%26amp%3Bnbsp%3B%20%2C%26amp%3Bnbsp%3B%26amp%3Bnbsp%3B%26lt%3B%2Fb%26gt%3B%26lt%3Bspan%26gt%3B%26lt%3Bb%20style%3D%26quot%3Bfont-size%3A%2014px%3B%26quot%3B%26gt%3BUserName%26amp%3Bnbsp%3B%26amp%3Bnbsp%3B%26lt%3B%2Fb%26gt%3B%26lt%3Bb%20style%3D%26quot%3Bfont-size%3A%2014px%3B%26quot%3B%26gt%3B%2C%26amp%3Bnbsp%3B%26amp%3Bnbsp%3B%26lt%3B%2Fb%26gt%3B%26lt%3Bb%20style%3D%26quot%3Bfont-size%3A%2014px%3B%26quot%3B%26gt%3Bvote_incident%26amp%3Bnbsp%3B%20%2C%26amp%3Bnbsp%3B%20description%26amp%3Bnbsp%3B%20%2C%26amp%3Bnbsp%3B%20date%26amp%3Bnbsp%3B%26amp%3Bnbsp%3B%26lt%3B%2Fb%26gt%3B%26lt%3Bb%20style%3D%26quot%3Bfont-size%3A%2014px%3B%26quot%3B%26gt%3B)%26lt%3B%2Fb%26gt%3B%26lt%3B%2Fspan%26gt%3B%22%20style%3D%22text%3Bhtml%3D1%3Balign%3Dcenter%3BverticalAlign%3Dmiddle%3Bresizable%3D0%3Bpoints%3D%5B%5D%3Bautosize%3D1%3BstrokeColor%3Dnone%3BfillColor%3Dnone%3BfontStyle%3D0%22%20vertex%3D%221%22%20parent%3D%221%22%3E%3CmxGeometry%20x%3D%221100%22%20y%3D%22914%22%20width%3D%22470%22%20height%3D%2230%22%20as%3D%22geometry%22%2F%3E%3C%2FmxCell%3E%3CmxCell%20id%3D%227%22%20value%3D%22%26lt%3Bb%20style%3D%26quot%3Bfont-size%3A%2014px%3B%26quot%3B%26gt%3B%26lt%3Bfont%20style%3D%26quot%3Bfont-size%3A%2014px%3B%26quot%3B%26gt%3BVote%26lt%3B%2Ffont%26gt%3B(incident_id%2C%26lt%3B%2Fb%26gt%3B%26lt%3Bspan%26gt%3B%26lt%3Bb%20style%3D%26quot%3Bfont-size%3A%2014px%3B%26quot%3B%26gt%3BUserName%26lt%3B%2Fb%26gt%3B%26lt%3Bb%20style%3D%26quot%3Bfont-size%3A%2014px%3B%26quot%3B%26gt%3B%2C%26lt%3B%2Fb%26gt%3B%26lt%3Bb%20style%3D%26quot%3Bfont-size%3A%2014px%3B%26quot%3B%26gt%3Bvote_incident%26lt%3B%2Fb%26gt%3B%26lt%3Bb%20style%3D%26quot%3Bfont-size%3A%2014px%3B%26quot%3B%26gt%3B)%26lt%3B%2Fb%26gt%3B%26lt%3B%2Fspan%26gt%3B%22%20style%3D%22text%3Bhtml%3D1%3Balign%3Dcenter%3BverticalAlign%3Dmiddle%3Bresizable%3D0%3Bpoints%3D%5B%5D%3Bautosize%3D1%3BstrokeColor%3Dnone%3BfillColor%3Dnone%3BfontStyle%3D0%22%20vertex%3D%221%22%20parent%3D%221%22%3E%3CmxGeometry%20x%3D%221102%22%20y%3D%22867%22%20width%3D%22300%22%20height%3D%2230%22%20as%3D%22geometry%22%2F%3E%3C%2FmxCell%3E%3CmxCell%20id%3D%228%22%20value%3D%22%22%20style%3D%22endArrow%3Dnone%3Bhtml%3D1%3Brounded%3D0%3BfontSize%3D12%3B%22%20edge%3D%221%22%20parent%3D%221%22%3E%3CmxGeometry%20width%3D%2250%22%20height%3D%2250%22%20relative%3D%221%22%20as%3D%22geometry%22%3E%3CmxPoint%20x%3D%221192%22%20y%3D%22811%22%20as%3D%22sourcePoint%22%2F%3E%3CmxPoint%20x%3D%221262%22%20y%3D%22811%22%20as%3D%22targetPoint%22%2F%3E%3C%2FmxGeometry%3E%3C%2FmxCell%3E%3CmxCell%20id%3D%229%22%20value%3D%22%22%20style%3D%22endArrow%3Dnone%3Bhtml%3D1%3Brounded%3D0%3BfontSize%3D12%3B%22%20edge%3D%221%22%20parent%3D%221%22%3E%3CmxGeometry%20width%3D%2250%22%20height%3D%2250%22%20relative%3D%221%22%20as%3D%22geometry%22%3E%3CmxPoint%20x%3D%221146%22%20y%3D%22845%22%20as%3D%22sourcePoint%22%2F%3E%3CmxPoint%20x%3D%221216%22%20y%3D%22845%22%20as%3D%22targetPoint%22%2F%3E%3C%2FmxGeometry%3E%3C%2FmxCell%3E%3CmxCell%20id%3D%2210%22%20value%3D%22%22%20style%3D%22endArrow%3Dnone%3Bhtml%3D1%3Brounded%3D0%3BfontSize%3D12%3B%22%20edge%3D%221%22%20parent%3D%221%22%3E%3CmxGeometry%20width%3D%2250%22%20height%3D%2250%22%20relative%3D%221%22%20as%3D%22geometry%22%3E%3CmxPoint%20x%3D%221229%22%20y%3D%22845%22%20as%3D%22sourcePoint%22%2F%3E%3CmxPoint%20x%3D%221370%22%20y%3D%22845%22%20as%3D%22targetPoint%22%2F%3E%3C%2FmxGeometry%3E%3C%2FmxCell%3E%3CmxCell%20id%3D%2211%22%20value%3D%22%22%20style%3D%22endArrow%3Dnone%3Bhtml%3D1%3Brounded%3D0%3BfontSize%3D12%3BendSize%3D6%3BjumpSize%3D3%3B%22%20edge%3D%221%22%20parent%3D%221%22%3E%3CmxGeometry%20width%3D%2250%22%20height%3D%2250%22%20relative%3D%221%22%20as%3D%22geometry%22%3E%3CmxPoint%20x%3D%221226%22%20y%3D%22891.71%22%20as%3D%22sourcePoint%22%2F%3E%3CmxPoint%20x%3D%221390%22%20y%3D%22892%22%20as%3D%22targetPoint%22%2F%3E%3C%2FmxGeometry%3E%3C%2FmxCell%3E%3CmxCell%20id%3D%2212%22%20value%3D%22%22%20style%3D%22endArrow%3Dnone%3Bhtml%3D1%3Brounded%3D0%3BfontSize%3D12%3BendSize%3D6%3BjumpSize%3D3%3B%22%20edge%3D%221%22%20parent%3D%221%22%3E%3CmxGeometry%20width%3D%2250%22%20height%3D%2250%22%20relative%3D%221%22%20as%3D%22geometry%22%3E%3CmxPoint%20x%3D%221226%22%20y%3D%22897%22%20as%3D%22sourcePoint%22%2F%3E%3CmxPoint%20x%3D%221390%22%20y%3D%22897.29%22%20as%3D%22targetPoint%22%2F%3E%3C%2FmxGeometry%3E%3C%2FmxCell%3E%3CmxCell%20id%3D%2213%22%20value%3D%22%22%20style%3D%22endArrow%3Dnone%3Bhtml%3D1%3Brounded%3D0%3BfontSize%3D12%3B%22%20edge%3D%221%22%20parent%3D%221%22%3E%3CmxGeometry%20width%3D%2250%22%20height%3D%2250%22%20relative%3D%221%22%20as%3D%22geometry%22%3E%3CmxPoint%20x%3D%221229%22%20y%3D%22848.8200000000002%22%20as%3D%22sourcePoint%22%2F%3E%3CmxPoint%20x%3D%221370%22%20y%3D%22848.8200000000002%22%20as%3D%22targetPoint%22%2F%3E%3C%2FmxGeometry%3E%3C%2FmxCell%3E%3CmxCell%20id%3D%2214%22%20value%3D%22%22%20style%3D%22endArrow%3Dnone%3Bhtml%3D1%3Brounded%3D0%3BfontSize%3D12%3BendSize%3D6%3BjumpSize%3D3%3BentryX%3D0.426%3BentryY%3D0.867%3BentryDx%3D0%3BentryDy%3D0%3BentryPerimeter%3D0%3B%22%20edge%3D%221%22%20parent%3D%221%22%3E%3CmxGeometry%20width%3D%2250%22%20height%3D%2250%22%20relative%3D%221%22%20as%3D%22geometry%22%3E%3CmxPoint%20x%3D%221180%22%20y%3D%22940%22%20as%3D%22sourcePoint%22%2F%3E%3CmxPoint%20x%3D%221298.2200000000003%22%20y%3D%22940.01%22%20as%3D%22targetPoint%22%2F%3E%3C%2FmxGeometry%3E%3C%2FmxCell%3E%3CmxCell%20id%3D%2215%22%20value%3D%22%22%20style%3D%22endArrow%3Dnone%3Bhtml%3D1%3Brounded%3D0%3BfontSize%3D12%3BendSize%3D6%3BjumpSize%3D3%3BentryX%3D0.419%3BentryY%3D1.083%3BentryDx%3D0%3BentryDy%3D0%3BentryPerimeter%3D0%3B%22%20edge%3D%221%22%20target%3D%226%22%20parent%3D%221%22%3E%3CmxGeometry%20width%3D%2250%22%20height%3D%2250%22%20relative%3D%221%22%20as%3D%22geometry%22%3E%3CmxPoint%20x%3D%221180%22%20y%3D%22947%22%20as%3D%22sourcePoint%22%2F%3E%3CmxPoint%20x%3D%221260%22%20y%3D%22947%22%20as%3D%22targetPoint%22%2F%3E%3C%2FmxGeometry%3E%3C%2FmxCell%3E%3CmxCell%20id%3D%2216%22%20value%3D%22%26lt%3Bb%20style%3D%26quot%3Bfont-size%3A%2014px%3B%26quot%3B%26gt%3BAdresse(%26amp%3Bnbsp%3B%20incident_id%26amp%3Bnbsp%3B%20%26amp%3Bnbsp%3B%20%2C%26amp%3Bnbsp%3B%20Nr_maison(%2B)%26lt%3B%2Fb%26gt%3B%26lt%3Bspan%26gt%3B%26lt%3Bb%20style%3D%26quot%3Bfont-size%3A%2014px%3B%26quot%3B%26gt%3B%26amp%3Bnbsp%3B%26amp%3Bnbsp%3B%26lt%3B%2Fb%26gt%3B%26lt%3Bb%20style%3D%26quot%3Bfont-size%3A%2014px%3B%26quot%3B%26gt%3B%2C%26amp%3Bnbsp%3B%20rue%26lt%3B%2Fb%26gt%3B%26lt%3Bb%20style%3D%26quot%3Bfont-size%3A%2014px%3B%26quot%3B%26gt%3B%26amp%3Bnbsp%3B%20%2C%26amp%3Bnbsp%3B%20ville%26amp%3Bnbsp%3B%20%2C%26amp%3Bnbsp%3B%20codepostal%26amp%3Bnbsp%3B%26amp%3Bnbsp%3B%26lt%3B%2Fb%26gt%3B%26lt%3Bb%20style%3D%26quot%3Bfont-size%3A%2014px%3B%26quot%3B%26gt%3B)%26lt%3B%2Fb%26gt%3B%26lt%3B%2Fspan%26gt%3B%22%20style%3D%22text%3Bhtml%3D1%3Balign%3Dcenter%3BverticalAlign%3Dmiddle%3Bresizable%3D0%3Bpoints%3D%5B%5D%3Bautosize%3D1%3BstrokeColor%3Dnone%3BfillColor%3Dnone%3BfontStyle%3D0%22%20vertex%3D%221%22%20parent%3D%221%22%3E%3CmxGeometry%20x%3D%221097%22%20y%3D%22973%22%20width%3D%22480%22%20height%3D%2230%22%20as%3D%22geometry%22%2F%3E%3C%2FmxCell%3E%3C%2Froot%3E%3C%2FmxGraphModel%3E&lt;/span&gt;&lt;br&gt;&lt;/h1&gt;&lt;span style=&quot;color: rgba(0, 0, 0, 0); font-family: monospace; font-size: 0px;&quot;&gt;%3CmxGraphModel%3E%3Croot%3E%3CmxCell%20id%3D%220%22%2F%3E%3CmxCell%20id%3D%221%22%20parent%3D%220%22%2F%3E%3CmxCell%20id%3D%222%22%20value%3D%22%26lt%3Bb%20style%3D%26quot%3Bfont-size%3A%2014px%3B%26quot%3B%26gt%3B%26lt%3Bfont%20style%3D%26quot%3Bfont-size%3A%2014px%3B%26quot%3B%26gt%3BUtilisateurs%26lt%3B%2Ffont%26gt%3B(UserName%2C%20mot_de_passe%2Cname%2Cemail)%26lt%3B%2Fb%26gt%3B%22%20style%3D%22text%3Bhtml%3D1%3Balign%3Dcenter%3BverticalAlign%3Dmiddle%3Bresizable%3D0%3Bpoints%3D%5B%5D%3Bautosize%3D1%3BstrokeColor%3Dnone%3BfillColor%3Dnone%3B%22%20vertex%3D%221%22%20parent%3D%221%22%3E%3CmxGeometry%20x%3D%221100%22%20y%3D%22785%22%20width%3D%22360%22%20height%3D%2230%22%20as%3D%22geometry%22%2F%3E%3C%2FmxCell%3E%3CmxCell%20id%3D%223%22%20value%3D%22%26lt%3Bb%20style%3D%26quot%3Bfont-size%3A%2014px%3B%26quot%3B%26gt%3B%26lt%3Bfont%20style%3D%26quot%3Bfont-size%3A%2014px%3B%26quot%3B%26gt%3BRole%26lt%3B%2Ffont%26gt%3B(%26lt%3Bspan%26gt%3BUserName%26lt%3B%2Fspan%26gt%3B%2C%26amp%3Bnbsp%3B%20%26lt%3Bspan%26gt%3BValid%C3%A9%26amp%3Bnbsp%3B%20%26amp%3Bnbsp%3B%2C%26amp%3Bnbsp%3B%20%26amp%3Bnbsp%3B%20Moderateur%26lt%3B%2Fspan%26gt%3B)%26lt%3Bbr%26gt%3B%26lt%3B%2Fb%26gt%3B%22%20style%3D%22text%3Bhtml%3D1%3Balign%3Dcenter%3BverticalAlign%3Dmiddle%3Bresizable%3D0%3Bpoints%3D%5B%5D%3Bautosize%3D1%3BstrokeColor%3Dnone%3BfillColor%3Dnone%3BfontStyle%3D0%22%20vertex%3D%221%22%20parent%3D%221%22%3E%3CmxGeometry%20x%3D%221100%22%20y%3D%22822%22%20width%3D%22290%22%20height%3D%2230%22%20as%3D%22geometry%22%2F%3E%3C%2FmxCell%3E%3CmxCell%20id%3D%224%22%20value%3D%22%26lt%3Bb%26gt%3B%26lt%3Bfont%20style%3D%26quot%3Bfont-size%3A%2012px%3B%26quot%3B%26gt%3B%7Boui%2C%20non%7D%26lt%3B%2Ffont%26gt%3B%26lt%3B%2Fb%26gt%3B%22%20style%3D%22text%3Bhtml%3D1%3Balign%3Dcenter%3BverticalAlign%3Dmiddle%3Bresizable%3D0%3Bpoints%3D%5B%5D%3Bautosize%3D1%3BstrokeColor%3Dnone%3BfillColor%3Dnone%3BfontSize%3D14%3B%22%20vertex%3D%221%22%20parent%3D%221%22%3E%3CmxGeometry%20x%3D%221202%22%20y%3D%22840%22%20width%3D%2280%22%20height%3D%2230%22%20as%3D%22geometry%22%2F%3E%3C%2FmxCell%3E%3CmxCell%20id%3D%225%22%20value%3D%22%26lt%3Bb%26gt%3B%26lt%3Bfont%20style%3D%26quot%3Bfont-size%3A%2012px%3B%26quot%3B%26gt%3B%7Boui%2C%20non%7D%26lt%3B%2Ffont%26gt%3B%26lt%3B%2Fb%26gt%3B%22%20style%3D%22text%3Bhtml%3D1%3Balign%3Dcenter%3BverticalAlign%3Dmiddle%3Bresizable%3D0%3Bpoints%3D%5B%5D%3Bautosize%3D1%3BstrokeColor%3Dnone%3BfillColor%3Dnone%3BfontSize%3D14%3B%22%20vertex%3D%221%22%20parent%3D%221%22%3E%3CmxGeometry%20x%3D%221292%22%20y%3D%22840%22%20width%3D%2280%22%20height%3D%2230%22%20as%3D%22geometry%22%2F%3E%3C%2FmxCell%3E%3CmxCell%20id%3D%226%22%20value%3D%22%26lt%3Bb%20style%3D%26quot%3Bfont-size%3A%2014px%3B%26quot%3B%26gt%3BIncident(%26amp%3Bnbsp%3B%20%26amp%3Bnbsp%3B%20id%26amp%3Bnbsp%3B%20%26amp%3Bnbsp%3B%20%2C%26amp%3Bnbsp%3B%26amp%3Bnbsp%3B%26lt%3B%2Fb%26gt%3B%26lt%3Bspan%26gt%3B%26lt%3Bb%20style%3D%26quot%3Bfont-size%3A%2014px%3B%26quot%3B%26gt%3BUserName%26amp%3Bnbsp%3B%26amp%3Bnbsp%3B%26lt%3B%2Fb%26gt%3B%26lt%3Bb%20style%3D%26quot%3Bfont-size%3A%2014px%3B%26quot%3B%26gt%3B%2C%26amp%3Bnbsp%3B%26amp%3Bnbsp%3B%26lt%3B%2Fb%26gt%3B%26lt%3Bb%20style%3D%26quot%3Bfont-size%3A%2014px%3B%26quot%3B%26gt%3Bvote_incident%26amp%3Bnbsp%3B%20%2C%26amp%3Bnbsp%3B%20description%26amp%3Bnbsp%3B%20%2C%26amp%3Bnbsp%3B%20date%26amp%3Bnbsp%3B%26amp%3Bnbsp%3B%26lt%3B%2Fb%26gt%3B%26lt%3Bb%20style%3D%26quot%3Bfont-size%3A%2014px%3B%26quot%3B%26gt%3B)%26lt%3B%2Fb%26gt%3B%26lt%3B%2Fspan%26gt%3B%22%20style%3D%22text%3Bhtml%3D1%3Balign%3Dcenter%3BverticalAlign%3Dmiddle%3Bresizable%3D0%3Bpoints%3D%5B%5D%3Bautosize%3D1%3BstrokeColor%3Dnone%3BfillColor%3Dnone%3BfontStyle%3D0%22%20vertex%3D%221%22%20parent%3D%221%22%3E%3CmxGeometry%20x%3D%221100%22%20y%3D%22914%22%20width%3D%22470%22%20height%3D%2230%22%20as%3D%22geometry%22%2F%3E%3C%2FmxCell%3E%3CmxCell%20id%3D%227%22%20value%3D%22%26lt%3Bb%20style%3D%26quot%3Bfont-size%3A%2014px%3B%26quot%3B%26gt%3B%26lt%3Bfont%20style%3D%26quot%3Bfont-size%3A%2014px%3B%26quot%3B%26gt%3BVote%26lt%3B%2Ffont%26gt%3B(incident_id%2C%26lt%3B%2Fb%26gt%3B%26lt%3Bspan%26gt%3B%26lt%3Bb%20style%3D%26quot%3Bfont-size%3A%2014px%3B%26quot%3B%26gt%3BUserName%26lt%3B%2Fb%26gt%3B%26lt%3Bb%20style%3D%26quot%3Bfont-size%3A%2014px%3B%26quot%3B%26gt%3B%2C%26lt%3B%2Fb%26gt%3B%26lt%3Bb%20style%3D%26quot%3Bfont-size%3A%2014px%3B%26quot%3B%26gt%3Bvote_incident%26lt%3B%2Fb%26gt%3B%26lt%3Bb%20style%3D%26quot%3Bfont-size%3A%2014px%3B%26quot%3B%26gt%3B)%26lt%3B%2Fb%26gt%3B%26lt%3B%2Fspan%26gt%3B%22%20style%3D%22text%3Bhtml%3D1%3Balign%3Dcenter%3BverticalAlign%3Dmiddle%3Bresizable%3D0%3Bpoints%3D%5B%5D%3Bautosize%3D1%3BstrokeColor%3Dnone%3BfillColor%3Dnone%3BfontStyle%3D0%22%20vertex%3D%221%22%20parent%3D%221%22%3E%3CmxGeometry%20x%3D%221102%22%20y%3D%22867%22%20width%3D%22300%22%20height%3D%2230%22%20as%3D%22geometry%22%2F%3E%3C%2FmxCell%3E%3CmxCell%20id%3D%228%22%20value%3D%22%22%20style%3D%22endArrow%3Dnone%3Bhtml%3D1%3Brounded%3D0%3BfontSize%3D12%3B%22%20edge%3D%221%22%20parent%3D%221%22%3E%3CmxGeometry%20width%3D%2250%22%20height%3D%2250%22%20relative%3D%221%22%20as%3D%22geometry%22%3E%3CmxPoint%20x%3D%221192%22%20y%3D%22811%22%20as%3D%22sourcePoint%22%2F%3E%3CmxPoint%20x%3D%221262%22%20y%3D%22811%22%20as%3D%22targetPoint%22%2F%3E%3C%2FmxGeometry%3E%3C%2FmxCell%3E%3CmxCell%20id%3D%229%22%20value%3D%22%22%20style%3D%22endArrow%3Dnone%3Bhtml%3D1%3Brounded%3D0%3BfontSize%3D12%3B%22%20edge%3D%221%22%20parent%3D%221%22%3E%3CmxGeometry%20width%3D%2250%22%20height%3D%2250%22%20relative%3D%221%22%20as%3D%22geometry%22%3E%3CmxPoint%20x%3D%221146%22%20y%3D%22845%22%20as%3D%22sourcePoint%22%2F%3E%3CmxPoint%20x%3D%221216%22%20y%3D%22845%22%20as%3D%22targetPoint%22%2F%3E%3C%2FmxGeometry%3E%3C%2FmxCell%3E%3CmxCell%20id%3D%2210%22%20value%3D%22%22%20style%3D%22endArrow%3Dnone%3Bhtml%3D1%3Brounded%3D0%3BfontSize%3D12%3B%22%20edge%3D%221%22%20parent%3D%221%22%3E%3CmxGeometry%20width%3D%2250%22%20height%3D%2250%22%20relative%3D%221%22%20as%3D%22geometry%22%3E%3CmxPoint%20x%3D%221229%22%20y%3D%22845%22%20as%3D%22sourcePoint%22%2F%3E%3CmxPoint%20x%3D%221370%22%20y%3D%22845%22%20as%3D%22targetPoint%22%2F%3E%3C%2FmxGeometry%3E%3C%2FmxCell%3E%3CmxCell%20id%3D%2211%22%20value%3D%22%22%20style%3D%22endArrow%3Dnone%3Bhtml%3D1%3Brounded%3D0%3BfontSize%3D12%3BendSize%3D6%3BjumpSize%3D3%3B%22%20edge%3D%221%22%20parent%3D%221%22%3E%3CmxGeometry%20width%3D%2250%22%20height%3D%2250%22%20relative%3D%221%22%20as%3D%22geometry%22%3E%3CmxPoint%20x%3D%221226%22%20y%3D%22891.71%22%20as%3D%22sourcePoint%22%2F%3E%3CmxPoint%20x%3D%221390%22%20y%3D%22892%22%20as%3D%22targetPoint%22%2F%3E%3C%2FmxGeometry%3E%3C%2FmxCell%3E%3CmxCell%20id%3D%2212%22%20value%3D%22%22%20style%3D%22endArrow%3Dnone%3Bhtml%3D1%3Brounded%3D0%3BfontSize%3D12%3BendSize%3D6%3BjumpSize%3D3%3B%22%20edge%3D%221%22%20parent%3D%221%22%3E%3CmxGeometry%20width%3D%2250%22%20height%3D%2250%22%20relative%3D%221%22%20as%3D%22geometry%22%3E%3CmxPoint%20x%3D%221226%22%20y%3D%22897%22%20as%3D%22sourcePoint%22%2F%3E%3CmxPoint%20x%3D%221390%22%20y%3D%22897.29%22%20as%3D%22targetPoint%22%2F%3E%3C%2FmxGeometry%3E%3C%2FmxCell%3E%3CmxCell%20id%3D%2213%22%20value%3D%22%22%20style%3D%22endArrow%3Dnone%3Bhtml%3D1%3Brounded%3D0%3BfontSize%3D12%3B%22%20edge%3D%221%22%20parent%3D%221%22%3E%3CmxGeometry%20width%3D%2250%22%20height%3D%2250%22%20relative%3D%221%22%20as%3D%22geometry%22%3E%3CmxPoint%20x%3D%221229%22%20y%3D%22848.8200000000002%22%20as%3D%22sourcePoint%22%2F%3E%3CmxPoint%20x%3D%221370%22%20y%3D%22848.8200000000002%22%20as%3D%22targetPoint%22%2F%3E%3C%2FmxGeometry%3E%3C%2FmxCell%3E%3CmxCell%20id%3D%2214%22%20value%3D%22%22%20style%3D%22endArrow%3Dnone%3Bhtml%3D1%3Brounded%3D0%3BfontSize%3D12%3BendSize%3D6%3BjumpSize%3D3%3BentryX%3D0.426%3BentryY%3D0.867%3BentryDx%3D0%3BentryDy%3D0%3BentryPerimeter%3D0%3B%22%20edge%3D%221%22%20parent%3D%221%22%3E%3CmxGeometry%20width%3D%2250%22%20height%3D%2250%22%20relative%3D%221%22%20as%3D%22geometry%22%3E%3CmxPoint%20x%3D%221180%22%20y%3D%22940%22%20as%3D%22sourcePoint%22%2F%3E%3CmxPoint%20x%3D%221298.2200000000003%22%20y%3D%22940.01%22%20as%3D%22targetPoint%22%2F%3E%3C%2FmxGeometry%3E%3C%2FmxCell%3E%3CmxCell%20id%3D%2215%22%20value%3D%22%22%20style%3D%22endArrow%3Dnone%3Bhtml%3D1%3Brounded%3D0%3BfontSize%3D12%3BendSize%3D6%3BjumpSize%3D3%3BentryX%3D0.419%3BentryY%3D1.083%3BentryDx%3D0%3BentryDy%3D0%3BentryPerimeter%3D0%3B%22%20edge%3D%221%22%20target%3D%226%22%20parent%3D%221%22%3E%3CmxGeometry%20width%3D%2250%22%20height%3D%2250%22%20relative%3D%221%22%20as%3D%22geometry%22%3E%3CmxPoint%20x%3D%221180%22%20y%3D%22947%22%20as%3D%22sourcePoint%22%2F%3E%3CmxPoint%20x%3D%221260%22%20y%3D%22947%22%20as%3D%22targetPoint%22%2F%3E%3C%2FmxGeometry%3E%3C%2FmxCell%3E%3CmxCell%20id%3D%2216%22%20value%3D%22%26lt%3Bb%20style%3D%26quot%3Bfont-size%3A%2014px%3B%26quot%3B%26gt%3BAdresse(%26amp%3Bnbsp%3B%20incident_id%26amp%3Bnbsp%3B%20%26amp%3Bnbsp%3B%20%2C%26amp%3Bnbsp%3B%20Nr_maison(%2B)%26lt%3B%2Fb%26gt%3B%26lt%3Bspan%26gt%3B%26lt%3Bb%20style%3D%26quot%3Bfont-size%3A%2014px%3B%26quot%3B%26gt%3B%26amp%3Bnbsp%3B%26amp%3Bnbsp%3B%26lt%3B%2Fb%26gt%3B%26lt%3Bb%20style%3D%26quot%3Bfont-size%3A%2014px%3B%26quot%3B%26gt%3B%2C%26amp%3Bnbsp%3B%20rue%26lt%3B%2Fb%26gt%3B%26lt%3Bb%20style%3D%26quot%3Bfont-size%3A%2014px%3B%26quot%3B%26gt%3B%26amp%3Bnbsp%3B%20%2C%26amp%3Bnbsp%3B%20ville%26amp%3Bnbsp%3B%20%2C%26amp%3Bnbsp%3B%20codepostal%26amp%3Bnbsp%3B%26amp%3Bnbsp%3B%26lt%3B%2Fb%26gt%3B%26lt%3Bb%20style%3D%26quot%3Bfont-size%3A%2014px%3B%26quot%3B%26gt%3B)%26lt%3B%2Fb%26gt%3B%26lt%3B%2Fspan%26gt%3B%22%20style%3D%22text%3Bhtml%3D1%3Balign%3Dcenter%3BverticalAlign%3Dmiddle%3Bresizable%3D0%3Bpoints%3D%5B%5D%3Bautosize%3D1%3BstrokeColor%3Dnone%3BfillColor%3Dnone%3BfontStyle%3D0%22%20vertex%3D%221%22%20parent%3D%221%22%3E%3CmxGeometry%20x%3D%221097%22%20y%3D%22973%22%20width%3D%22480%22%20height%3D%2230%22%20as%3D%22geometry%22%2F%3E%3C%2FmxCell%3E%3C%2Froot%3E%3C%2FmxGraphModel%3E&lt;/span&gt;" style="text;html=1;spacing=5;spacingTop=-20;whiteSpace=wrap;overflow=hidden;rounded=0;fontSize=22;strokeColor=default;fillColor=default;" parent="2" vertex="1">
                    <mxGeometry y="40" width="880" height="440" as="geometry"/>
                </mxCell>
                <mxCell id="NtDsLSQMR17nZNyILTm_-37" value="&lt;b style=&quot;font-size: 14px;&quot;&gt;&lt;font style=&quot;font-size: 14px;&quot;&gt;Utilisateurs&lt;/font&gt;(UserName, mot_de_passe,name,email)&lt;/b&gt;" style="text;html=1;align=center;verticalAlign=middle;resizable=0;points=[];autosize=1;strokeColor=none;fillColor=none;" parent="2" vertex="1">
                    <mxGeometry x="316" y="76" width="360" height="30" as="geometry"/>
                </mxCell>
                <mxCell id="NtDsLSQMR17nZNyILTm_-38" value="&lt;b style=&quot;font-size: 14px;&quot;&gt;&lt;font style=&quot;font-size: 14px;&quot;&gt;Role&lt;/font&gt;(&lt;span&gt;UserName&lt;/span&gt;,&amp;nbsp; &lt;span&gt;Validé&amp;nbsp; &amp;nbsp;,&amp;nbsp; &amp;nbsp; Moderateur&lt;/span&gt;)&lt;br&gt;&lt;/b&gt;" style="text;html=1;align=center;verticalAlign=middle;resizable=0;points=[];autosize=1;strokeColor=none;fillColor=none;fontStyle=0" parent="2" vertex="1">
                    <mxGeometry x="480" y="140" width="290" height="30" as="geometry"/>
                </mxCell>
                <mxCell id="NtDsLSQMR17nZNyILTm_-39" value="&lt;b&gt;&lt;font style=&quot;font-size: 12px;&quot;&gt;{oui, non}&lt;/font&gt;&lt;/b&gt;" style="text;html=1;align=center;verticalAlign=middle;resizable=0;points=[];autosize=1;strokeColor=none;fillColor=none;fontSize=14;" parent="2" vertex="1">
                    <mxGeometry x="582" y="158" width="80" height="30" as="geometry"/>
                </mxCell>
                <mxCell id="NtDsLSQMR17nZNyILTm_-40" value="&lt;b&gt;&lt;font style=&quot;font-size: 12px;&quot;&gt;{oui, non}&lt;/font&gt;&lt;/b&gt;" style="text;html=1;align=center;verticalAlign=middle;resizable=0;points=[];autosize=1;strokeColor=none;fillColor=none;fontSize=14;" parent="2" vertex="1">
                    <mxGeometry x="672" y="158" width="80" height="30" as="geometry"/>
                </mxCell>
                <mxCell id="NtDsLSQMR17nZNyILTm_-41" value="&lt;b style=&quot;font-size: 14px;&quot;&gt;Incident(&amp;nbsp; &amp;nbsp; id&amp;nbsp; &amp;nbsp; ,&amp;nbsp;&amp;nbsp;&lt;/b&gt;&lt;span&gt;&lt;b style=&quot;font-size: 14px;&quot;&gt;UserName&amp;nbsp;&amp;nbsp;&lt;/b&gt;&lt;b style=&quot;font-size: 14px;&quot;&gt;,&amp;nbsp;&amp;nbsp;&lt;/b&gt;&lt;b style=&quot;font-size: 14px;&quot;&gt;vote_incident&amp;nbsp; ,&amp;nbsp; description&amp;nbsp; ,&amp;nbsp; date&amp;nbsp;&amp;nbsp;&lt;/b&gt;&lt;b style=&quot;font-size: 14px;&quot;&gt;)&lt;/b&gt;&lt;/span&gt;" style="text;html=1;align=center;verticalAlign=middle;resizable=0;points=[];autosize=1;strokeColor=none;fillColor=none;fontStyle=0" parent="2" vertex="1">
                    <mxGeometry x="354" y="220" width="470" height="30" as="geometry"/>
                </mxCell>
                <mxCell id="NtDsLSQMR17nZNyILTm_-42" value="&lt;b style=&quot;font-size: 14px;&quot;&gt;&lt;font style=&quot;font-size: 14px;&quot;&gt;Vote&lt;/font&gt;(incident_id,&lt;/b&gt;&lt;span&gt;&lt;b style=&quot;font-size: 14px;&quot;&gt;UserName&lt;/b&gt;&lt;b style=&quot;font-size: 14px;&quot;&gt;,&lt;/b&gt;&lt;b style=&quot;font-size: 14px;&quot;&gt;vote_incident&lt;/b&gt;&lt;b style=&quot;font-size: 14px;&quot;&gt;)&lt;/b&gt;&lt;/span&gt;" style="text;html=1;align=center;verticalAlign=middle;resizable=0;points=[];autosize=1;strokeColor=none;fillColor=none;fontStyle=0" parent="2" vertex="1">
                    <mxGeometry x="64.5" y="315" width="300" height="30" as="geometry"/>
                </mxCell>
                <mxCell id="NtDsLSQMR17nZNyILTm_-43" value="" style="endArrow=none;html=1;rounded=0;fontSize=12;" parent="2" edge="1">
                    <mxGeometry width="50" height="50" relative="1" as="geometry">
                        <mxPoint x="408" y="102" as="sourcePoint"/>
                        <mxPoint x="478" y="102" as="targetPoint"/>
                    </mxGeometry>
                </mxCell>
                <mxCell id="NtDsLSQMR17nZNyILTm_-44" value="" style="endArrow=none;html=1;rounded=0;fontSize=12;" parent="2" edge="1">
                    <mxGeometry width="50" height="50" relative="1" as="geometry">
                        <mxPoint x="526" y="163" as="sourcePoint"/>
                        <mxPoint x="596" y="163" as="targetPoint"/>
                    </mxGeometry>
                </mxCell>
                <mxCell id="NtDsLSQMR17nZNyILTm_-45" value="" style="endArrow=none;html=1;rounded=0;fontSize=12;" parent="2" edge="1">
                    <mxGeometry width="50" height="50" relative="1" as="geometry">
                        <mxPoint x="609" y="163" as="sourcePoint"/>
                        <mxPoint x="750" y="163" as="targetPoint"/>
                    </mxGeometry>
                </mxCell>
                <mxCell id="NtDsLSQMR17nZNyILTm_-46" value="" style="endArrow=none;html=1;rounded=0;fontSize=12;endSize=6;jumpSize=3;" parent="2" edge="1">
                    <mxGeometry width="50" height="50" relative="1" as="geometry">
                        <mxPoint x="188.5" y="339.71000000000004" as="sourcePoint"/>
                        <mxPoint x="352.5" y="340" as="targetPoint"/>
                    </mxGeometry>
                </mxCell>
                <mxCell id="NtDsLSQMR17nZNyILTm_-47" value="" style="endArrow=none;html=1;rounded=0;fontSize=12;endSize=6;jumpSize=3;" parent="2" edge="1">
                    <mxGeometry width="50" height="50" relative="1" as="geometry">
                        <mxPoint x="188.5" y="345" as="sourcePoint"/>
                        <mxPoint x="352.5" y="345.28999999999996" as="targetPoint"/>
                    </mxGeometry>
                </mxCell>
                <mxCell id="NtDsLSQMR17nZNyILTm_-48" value="" style="endArrow=none;html=1;rounded=0;fontSize=12;" parent="2" edge="1">
                    <mxGeometry width="50" height="50" relative="1" as="geometry">
                        <mxPoint x="609" y="166.82000000000016" as="sourcePoint"/>
                        <mxPoint x="750" y="166.82000000000016" as="targetPoint"/>
                    </mxGeometry>
                </mxCell>
                <mxCell id="NtDsLSQMR17nZNyILTm_-49" value="" style="endArrow=none;html=1;rounded=0;fontSize=12;endSize=6;jumpSize=3;entryX=0.426;entryY=0.867;entryDx=0;entryDy=0;entryPerimeter=0;" parent="2" edge="1">
                    <mxGeometry width="50" height="50" relative="1" as="geometry">
                        <mxPoint x="434" y="246" as="sourcePoint"/>
                        <mxPoint x="552.2200000000003" y="246.01" as="targetPoint"/>
                    </mxGeometry>
                </mxCell>
                <mxCell id="NtDsLSQMR17nZNyILTm_-50" value="" style="endArrow=none;html=1;rounded=0;fontSize=12;endSize=6;jumpSize=3;entryX=0.419;entryY=1.083;entryDx=0;entryDy=0;entryPerimeter=0;" parent="2" target="NtDsLSQMR17nZNyILTm_-41" edge="1">
                    <mxGeometry width="50" height="50" relative="1" as="geometry">
                        <mxPoint x="434" y="253" as="sourcePoint"/>
                        <mxPoint x="514" y="253" as="targetPoint"/>
                    </mxGeometry>
                </mxCell>
                <mxCell id="NtDsLSQMR17nZNyILTm_-51" value="&lt;b style=&quot;font-size: 14px;&quot;&gt;Adresse(&amp;nbsp; incident_id&amp;nbsp; &amp;nbsp; ,&amp;nbsp; Nr_maison(+)&lt;/b&gt;&lt;span&gt;&lt;b style=&quot;font-size: 14px;&quot;&gt;&amp;nbsp;&amp;nbsp;&lt;/b&gt;&lt;b style=&quot;font-size: 14px;&quot;&gt;,&amp;nbsp; rue&lt;/b&gt;&lt;b style=&quot;font-size: 14px;&quot;&gt;&amp;nbsp; ,&amp;nbsp; ville&amp;nbsp; ,&amp;nbsp; codepostal&amp;nbsp;&amp;nbsp;&lt;/b&gt;&lt;b style=&quot;font-size: 14px;&quot;&gt;)&lt;/b&gt;&lt;/span&gt;" style="text;html=1;align=center;verticalAlign=middle;resizable=0;points=[];autosize=1;strokeColor=none;fillColor=none;fontStyle=0" parent="2" vertex="1">
                    <mxGeometry x="385" y="390" width="480" height="30" as="geometry"/>
                </mxCell>
                <mxCell id="NtDsLSQMR17nZNyILTm_-53" value="" style="endArrow=classic;html=1;rounded=0;fontSize=22;endSize=6;jumpSize=3;dashed=1;" parent="2" edge="1">
                    <mxGeometry width="50" height="50" relative="1" as="geometry">
                        <mxPoint x="555" y="148" as="sourcePoint"/>
                        <mxPoint x="435" y="103" as="targetPoint"/>
                    </mxGeometry>
                </mxCell>
                <mxCell id="NtDsLSQMR17nZNyILTm_-54" value="" style="endArrow=classic;html=1;rounded=0;dashed=1;fontSize=22;endSize=6;jumpSize=3;" parent="2" edge="1">
                    <mxGeometry width="50" height="50" relative="1" as="geometry">
                        <mxPoint x="480" y="218" as="sourcePoint"/>
                        <mxPoint x="432" y="104" as="targetPoint"/>
                    </mxGeometry>
                </mxCell>
                <mxCell id="NtDsLSQMR17nZNyILTm_-55" value="" style="endArrow=classic;html=1;rounded=0;dashed=1;fontSize=22;endSize=6;jumpSize=3;" parent="2" edge="1">
                    <mxGeometry width="50" height="50" relative="1" as="geometry">
                        <mxPoint x="223" y="324" as="sourcePoint"/>
                        <mxPoint x="428" y="106" as="targetPoint"/>
                    </mxGeometry>
                </mxCell>
                <mxCell id="NtDsLSQMR17nZNyILTm_-56" value="" style="endArrow=classic;html=1;rounded=0;dashed=1;fontSize=22;endSize=6;jumpSize=3;" parent="2" edge="1">
                    <mxGeometry width="50" height="50" relative="1" as="geometry">
                        <mxPoint x="496" y="400" as="sourcePoint"/>
                        <mxPoint x="448" y="254" as="targetPoint"/>
                    </mxGeometry>
                </mxCell>
                <mxCell id="NtDsLSQMR17nZNyILTm_-57" value="" style="endArrow=classic;html=1;rounded=0;dashed=1;fontSize=22;endSize=6;jumpSize=3;" parent="2" edge="1">
                    <mxGeometry width="50" height="50" relative="1" as="geometry">
                        <mxPoint x="135" y="324" as="sourcePoint"/>
                        <mxPoint x="441" y="250" as="targetPoint"/>
                    </mxGeometry>
                </mxCell>
            </root>
        </mxGraphModel>
    </diagram>
</mxfile>